G04 Layer_Color=65535*
%FSLAX25Y25*%
%MOIN*%
G70*
G01*
G75*
%ADD51C,0.01000*%
%ADD53C,0.01500*%
%ADD56C,0.00800*%
%ADD99C,0.00787*%
%ADD100C,0.00984*%
%ADD101C,0.01200*%
%ADD102C,0.00700*%
%ADD103C,0.02362*%
%ADD104C,0.00500*%
%ADD105R,0.01968X0.11937*%
%ADD106R,0.02500X0.02500*%
D51*
X228256Y133579D02*
G03*
X228256Y133579I-847J0D01*
G01*
X131750Y169000D02*
G03*
X131750Y151000I0J-9000D01*
G01*
X158250Y150986D02*
G03*
X158250Y169014I0J9014D01*
G01*
X526845Y73419D02*
X528813D01*
X526845D02*
Y82081D01*
X528813D01*
X552435Y73419D02*
X554403D01*
Y82081D01*
X552435D02*
X554403D01*
X801457Y-19311D02*
Y-11437D01*
X808543Y-19311D02*
Y-11437D01*
X801850Y-23642D02*
X808150D01*
X293600Y37900D02*
Y55100D01*
X327400Y37900D02*
Y55100D01*
X293600Y37900D02*
X327400D01*
X293600Y55100D02*
X327400D01*
X124900Y43100D02*
X142100D01*
X124900Y76900D02*
X142100D01*
Y43100D02*
Y76900D01*
X124900Y43100D02*
Y76900D01*
X803957Y6063D02*
Y13937D01*
X811043Y6063D02*
Y13937D01*
X804350Y1732D02*
X810650D01*
X90400Y80700D02*
Y114500D01*
X107600Y80700D02*
Y114500D01*
X90400D02*
X107600D01*
X90400Y80700D02*
X107600D01*
X551850Y129350D02*
Y163150D01*
X534650Y129350D02*
Y163150D01*
Y129350D02*
X551850D01*
X534650Y163150D02*
X551850D01*
X571850Y129350D02*
Y163150D01*
X554650Y129350D02*
Y163150D01*
Y129350D02*
X571850D01*
X554650Y163150D02*
X571850D01*
X511850Y129350D02*
Y163150D01*
X494650Y129350D02*
Y163150D01*
Y129350D02*
X511850D01*
X494650Y163150D02*
X511850D01*
X-38405Y118169D02*
X-36437D01*
X-38405D02*
Y126831D01*
X-36437D01*
X-12815Y118169D02*
X-10847D01*
Y126831D01*
X-12815D02*
X-10847D01*
X531850Y129350D02*
Y163150D01*
X514650Y129350D02*
Y163150D01*
Y129350D02*
X531850D01*
X514650Y163150D02*
X531850D01*
X-57028Y-10197D02*
Y40197D01*
X-35768D01*
X-57028Y-10197D02*
X-35768D01*
Y40197D01*
X-48937Y51457D02*
X-41063D01*
X-48937Y58543D02*
X-41063D01*
X-36732Y51850D02*
Y58150D01*
X62279Y111457D02*
Y118543D01*
X504350Y-116232D02*
X510650D01*
X503957Y-128437D02*
Y-120563D01*
X511043Y-128437D02*
Y-120563D01*
X124900Y80600D02*
X142100D01*
X124900Y114400D02*
X142100D01*
Y80600D02*
Y114400D01*
X124900Y80600D02*
Y114400D01*
X410000Y47500D02*
Y112500D01*
X510000D01*
Y47500D02*
Y112500D01*
X410000Y47500D02*
X510000D01*
X236000Y98498D02*
Y94499D01*
X237999Y92500D01*
X239999Y94499D01*
Y98498D01*
X241998Y92500D02*
Y98498D01*
X244997D01*
X245997Y97498D01*
Y95499D01*
X244997Y94499D01*
X241998D01*
X243997D02*
X245997Y92500D01*
X240000Y50000D02*
Y55998D01*
X242999D01*
X243999Y54998D01*
Y52999D01*
X242999Y51999D01*
X240000D01*
X241999D02*
X243999Y50000D01*
X245998Y55998D02*
X249997D01*
X247997D01*
Y50000D01*
X251996D02*
Y55998D01*
X255995Y50000D01*
Y55998D01*
X16000Y148500D02*
Y154498D01*
X18999D01*
X19999Y153498D01*
Y151499D01*
X18999Y150499D01*
X16000D01*
X17999D02*
X19999Y148500D01*
X21998Y154498D02*
X25997D01*
X23997D01*
Y148500D01*
X27996D02*
Y154498D01*
X31995Y148500D01*
Y154498D01*
X422500Y-152500D02*
Y-146502D01*
X425499D01*
X426499Y-147502D01*
Y-149501D01*
X425499Y-150501D01*
X422500D01*
X424499D02*
X426499Y-152500D01*
X428498Y-146502D02*
X432497D01*
X430497D01*
Y-152500D01*
X434496D02*
Y-146502D01*
X438495Y-152500D01*
Y-146502D01*
X81000Y69500D02*
Y75498D01*
X83999D01*
X84999Y74498D01*
Y72499D01*
X83999Y71499D01*
X81000D01*
X82999D02*
X84999Y69500D01*
X86998Y75498D02*
X88997D01*
X87998D01*
Y69500D01*
X86998D01*
X88997D01*
X476499Y-184002D02*
X472500D01*
Y-187001D01*
X474499Y-186001D01*
X475499D01*
X476499Y-187001D01*
Y-189000D01*
X475499Y-190000D01*
X473500D01*
X472500Y-189000D01*
X478498Y-184002D02*
Y-188001D01*
X480497Y-190000D01*
X482497Y-188001D01*
Y-184002D01*
X484496Y-190000D02*
Y-186001D01*
X486495Y-184002D01*
X488495Y-186001D01*
Y-190000D01*
Y-187001D01*
X484496D01*
X483999Y-141502D02*
X480000D01*
Y-144501D01*
X481999Y-143501D01*
X482999D01*
X483999Y-144501D01*
Y-146500D01*
X482999Y-147500D01*
X481000D01*
X480000Y-146500D01*
X485998Y-141502D02*
Y-145501D01*
X487997Y-147500D01*
X489997Y-145501D01*
Y-141502D01*
X521499Y207500D02*
X517500D01*
X521499Y211499D01*
Y212498D01*
X520499Y213498D01*
X518500D01*
X517500Y212498D01*
X526497Y207500D02*
Y213498D01*
X523498Y210499D01*
X527497D01*
X529496Y213498D02*
X533495Y207500D01*
Y213498D02*
X529496Y207500D01*
X509150Y227648D02*
X513149Y221650D01*
Y227648D02*
X509150Y221650D01*
X515148Y224649D02*
X519147D01*
X517147Y226648D02*
Y222650D01*
X510000Y258498D02*
X513999Y252500D01*
Y258498D02*
X510000Y252500D01*
X515998Y255499D02*
X519997D01*
X372500Y-174002D02*
X374499D01*
X373500D01*
Y-180000D01*
X372500D01*
X374499D01*
X377498Y-174002D02*
Y-180000D01*
X380497D01*
X381497Y-179000D01*
Y-175002D01*
X380497Y-174002D01*
X377498D01*
X383496D02*
Y-180000D01*
X386495D01*
X387495Y-179000D01*
Y-175002D01*
X386495Y-174002D01*
X383496D01*
X360000Y-226502D02*
X361999D01*
X361000D01*
Y-232500D01*
X360000D01*
X361999D01*
X364998Y-226502D02*
Y-232500D01*
X367997D01*
X368997Y-231500D01*
Y-227502D01*
X367997Y-226502D01*
X364998D01*
X374995Y-227502D02*
X373995Y-226502D01*
X371996D01*
X370996Y-227502D01*
Y-231500D01*
X371996Y-232500D01*
X373995D01*
X374995Y-231500D01*
X720002Y216499D02*
X719002Y215499D01*
Y213500D01*
X720002Y212500D01*
X721001D01*
X722001Y213500D01*
Y215499D01*
X723001Y216499D01*
X724000D01*
X725000Y215499D01*
Y213500D01*
X724000Y212500D01*
X725000Y218498D02*
Y220497D01*
Y219498D01*
X719002D01*
X720002Y218498D01*
X719002Y223496D02*
X725000D01*
X722001D01*
Y227495D01*
X719002D01*
X725000D01*
X683999Y217498D02*
X682999Y218498D01*
X681000D01*
X680000Y217498D01*
Y216499D01*
X681000Y215499D01*
X682999D01*
X683999Y214499D01*
Y213500D01*
X682999Y212500D01*
X681000D01*
X680000Y213500D01*
X685998Y212500D02*
X687997D01*
X686998D01*
Y218498D01*
X685998Y217498D01*
X690996Y218498D02*
X694995D01*
X692996D01*
Y212500D01*
X301499Y205000D02*
X297500D01*
X301499Y208999D01*
Y209998D01*
X300499Y210998D01*
X298500D01*
X297500Y209998D01*
X306497Y205000D02*
Y210998D01*
X303498Y207999D01*
X307497D01*
X309496Y210998D02*
X313495Y205000D01*
Y210998D02*
X309496Y205000D01*
X321650Y225148D02*
X325649Y219150D01*
Y225148D02*
X321650Y219150D01*
X327648Y222149D02*
X331647D01*
X329647Y224148D02*
Y220150D01*
X322500Y253498D02*
X326499Y247500D01*
Y253498D02*
X322500Y247500D01*
X328498Y250499D02*
X332497D01*
X420500Y-179502D02*
X421500Y-178502D01*
X423499D01*
X424499Y-179502D01*
Y-180501D01*
X423499Y-181501D01*
X422499D01*
X423499D01*
X424499Y-182501D01*
Y-183500D01*
X423499Y-184500D01*
X421500D01*
X420500Y-183500D01*
X426498Y-184500D02*
Y-183500D01*
X427498D01*
Y-184500D01*
X426498D01*
X431496Y-179502D02*
X432496Y-178502D01*
X434495D01*
X435495Y-179502D01*
Y-180501D01*
X434495Y-181501D01*
X433496D01*
X434495D01*
X435495Y-182501D01*
Y-183500D01*
X434495Y-184500D01*
X432496D01*
X431496Y-183500D01*
X437495Y-184500D02*
Y-178502D01*
X440493D01*
X441493Y-179502D01*
Y-181501D01*
X440493Y-182501D01*
X437495D01*
X443493Y-178502D02*
X445492D01*
X444492D01*
Y-184500D01*
X443493D01*
X445492D01*
X451909Y26030D02*
X455908D01*
X453909Y28030D02*
Y24031D01*
X-7500Y275998D02*
X-5501D01*
X-6500D01*
Y270000D01*
X-7500D01*
X-5501D01*
X-2502D02*
Y275998D01*
X1497Y270000D01*
Y275998D01*
X3496Y270000D02*
Y275998D01*
X6496D01*
X7495Y274998D01*
Y272999D01*
X6496Y271999D01*
X3496D01*
X9494Y275998D02*
Y271000D01*
X10494Y270000D01*
X12494D01*
X13493Y271000D01*
Y275998D01*
X15493D02*
X19491D01*
X17492D01*
Y270000D01*
X31487Y274998D02*
X30488Y275998D01*
X28488D01*
X27489Y274998D01*
Y273999D01*
X28488Y272999D01*
X30488D01*
X31487Y271999D01*
Y271000D01*
X30488Y270000D01*
X28488D01*
X27489Y271000D01*
X33487Y275998D02*
X35486D01*
X34486D01*
Y270000D01*
X33487D01*
X35486D01*
X38485Y275998D02*
Y270000D01*
X41484D01*
X42484Y271000D01*
Y274998D01*
X41484Y275998D01*
X38485D01*
X48482D02*
X44483D01*
Y270000D01*
X48482D01*
X44483Y272999D02*
X46483D01*
X101031Y175591D02*
Y171592D01*
X103030Y173591D02*
X99031D01*
X-38700Y212500D02*
G03*
X-38700Y232500I0J10000D01*
G01*
X798700D02*
G03*
X798700Y212500I0J-10000D01*
G01*
D53*
X40000Y9800D02*
Y54800D01*
Y9800D02*
X43000D01*
X40000Y54800D02*
X43000D01*
X56000Y9800D02*
X59000D01*
X56000Y54800D02*
X59000D01*
Y9800D02*
Y54800D01*
D56*
X182008Y201594D02*
X185551D01*
X181614Y213405D02*
X185551D01*
X181614Y214587D02*
X185551D01*
X181614Y200413D02*
Y214587D01*
Y200413D02*
X185551D01*
X204449D02*
Y201594D01*
X185551Y200413D02*
X204449D01*
X185551D02*
Y201594D01*
Y213405D02*
Y214587D01*
X204449D01*
Y213405D02*
Y214587D01*
X329500Y54000D02*
X337500D01*
X329500Y50000D02*
Y54000D01*
X337500Y50000D02*
Y54000D01*
X329500Y34000D02*
X337500D01*
X329500D02*
Y38000D01*
X337500Y34000D02*
Y38000D01*
X236347Y167500D02*
X248346D01*
X236347Y161500D02*
X248346D01*
X26847Y104000D02*
X31346D01*
X26847Y110000D02*
X31346D01*
Y104000D02*
Y110000D01*
X18347Y104000D02*
Y110000D01*
Y104000D02*
X22847D01*
X18347Y110000D02*
X22847D01*
X65000Y1000D02*
X69500D01*
X65000Y7000D02*
X69500D01*
Y1000D02*
Y7000D01*
X56500Y1000D02*
Y7000D01*
Y1000D02*
X61000D01*
X56500Y7000D02*
X61000D01*
X52653Y64000D02*
X57153D01*
X52653Y70000D02*
X57153D01*
Y64000D02*
Y70000D01*
X44154Y64000D02*
Y70000D01*
Y64000D02*
X48654D01*
X44154Y70000D02*
X48654D01*
X103000Y63500D02*
X111000D01*
X103000Y59500D02*
Y63500D01*
X111000Y59500D02*
Y63500D01*
X103000Y43500D02*
X111000D01*
X103000D02*
Y47500D01*
X111000Y43500D02*
Y47500D01*
X65000Y63500D02*
X73000D01*
X65000Y59500D02*
Y63500D01*
X73000Y59500D02*
Y63500D01*
X65000Y43500D02*
X73000D01*
X65000D02*
Y47500D01*
X73000Y43500D02*
Y47500D01*
X58500Y211000D02*
X66500D01*
Y215000D01*
X58500Y211000D02*
Y215000D01*
Y231000D02*
X66500D01*
Y227000D02*
Y231000D01*
X58500Y227000D02*
Y231000D01*
X38500Y211000D02*
X46500D01*
Y215000D01*
X38500Y211000D02*
Y215000D01*
Y231000D02*
X46500D01*
Y227000D02*
Y231000D01*
X38500Y227000D02*
Y231000D01*
X555250Y95596D02*
Y100096D01*
X561250Y95596D02*
Y100096D01*
X555250Y95596D02*
X561250D01*
X555250Y108597D02*
X561250D01*
X555250Y104096D02*
Y108597D01*
X561250Y104096D02*
Y108597D01*
X739500Y200500D02*
X747500D01*
Y204500D01*
X739500Y200500D02*
Y204500D01*
Y220500D02*
X747500D01*
Y216500D02*
Y220500D01*
X739500Y216500D02*
Y220500D01*
X-34000Y68000D02*
X-26000D01*
X-34000Y64000D02*
Y68000D01*
X-26000Y64000D02*
Y68000D01*
X-34000Y48000D02*
X-26000D01*
X-34000D02*
Y52000D01*
X-26000Y48000D02*
Y52000D01*
X-14653Y110000D02*
X-10153D01*
X-14653Y104000D02*
X-10153D01*
X-14653D02*
Y110000D01*
X-1654Y104000D02*
Y110000D01*
X-6154D02*
X-1654D01*
X-6154Y104000D02*
X-1654D01*
X-24500Y52346D02*
Y56846D01*
X-18500Y52346D02*
Y56846D01*
X-24500Y52346D02*
X-18500D01*
X-24500Y65346D02*
X-18500D01*
X-24500Y60847D02*
Y65346D01*
X-18500Y60847D02*
Y65346D01*
X28153Y43500D02*
X32653D01*
X28153Y49500D02*
X32653D01*
Y43500D02*
Y49500D01*
X19654Y43500D02*
Y49500D01*
Y43500D02*
X24153D01*
X19654Y49500D02*
X24153D01*
X696000Y223500D02*
X704000D01*
Y227500D01*
X696000Y223500D02*
Y227500D01*
Y243500D02*
X704000D01*
Y239500D02*
Y243500D01*
X696000Y239500D02*
Y243500D01*
X-5500Y142654D02*
Y147153D01*
X500Y142654D02*
Y147153D01*
X-5500Y142654D02*
X500D01*
X-5500Y155654D02*
X500D01*
X-5500Y151154D02*
Y155654D01*
X500Y151154D02*
Y155654D01*
X41500Y82346D02*
Y86847D01*
X35500Y82346D02*
Y86847D01*
X41500D01*
X35500Y73847D02*
X41500D01*
Y78347D01*
X35500Y73847D02*
Y78347D01*
X-29846Y35500D02*
X-25346D01*
X-29846Y29500D02*
X-25346D01*
X-29846D02*
Y35500D01*
X-16846Y29500D02*
Y35500D01*
X-21346D02*
X-16846D01*
X-21346Y29500D02*
X-16846D01*
X220500Y167500D02*
X232500D01*
X220500Y161500D02*
X232500D01*
X511000Y-153000D02*
Y-141000D01*
X505000Y-153000D02*
Y-141000D01*
X452000Y-175154D02*
Y-163154D01*
X458000Y-175154D02*
Y-163154D01*
X454000Y-135500D02*
X466000D01*
X454000Y-129500D02*
X466000D01*
X551903Y121750D02*
X563904D01*
X551903Y115750D02*
X563904D01*
X534750Y121750D02*
X546750D01*
X534750Y115750D02*
X546750D01*
X517250Y121750D02*
X529250D01*
X517250Y115750D02*
X529250D01*
X573250Y56097D02*
Y68097D01*
X579250Y56097D02*
Y68097D01*
X565250Y56097D02*
Y68097D01*
X571250Y56097D02*
Y68097D01*
X557750Y56097D02*
Y68097D01*
X563750Y56097D02*
Y68097D01*
X563596Y73250D02*
X575597D01*
X563596Y79250D02*
X575597D01*
X773153Y-13000D02*
X785153D01*
X773153Y-7000D02*
X785153D01*
X774000Y9500D02*
X786000D01*
X774000Y15500D02*
X786000D01*
X639847Y224500D02*
X651847D01*
X639847Y230500D02*
X651847D01*
X758000Y204000D02*
Y216000D01*
X752000Y204000D02*
Y216000D01*
X659846Y224500D02*
X671846D01*
X659846Y230500D02*
X671846D01*
X713000Y227346D02*
Y239347D01*
X707000Y227346D02*
Y239347D01*
X31000Y17000D02*
Y29000D01*
X37000Y17000D02*
Y29000D01*
X14000D02*
X26000D01*
X14000Y23000D02*
X26000D01*
X-11000Y170500D02*
X1000D01*
X-11000Y164500D02*
X1000D01*
X-52500Y44000D02*
X-40500D01*
X-52500Y50000D02*
X-40500D01*
X-26847Y170500D02*
X-14846D01*
X-26847Y164500D02*
X-14846D01*
X-42654Y170500D02*
X-30654D01*
X-42654Y164500D02*
X-30654D01*
X-20154Y28000D02*
X-8153D01*
X-20154Y22000D02*
X-8153D01*
X338000Y73500D02*
Y78000D01*
X344000Y73500D02*
Y78000D01*
X338000Y73500D02*
X344000D01*
X338000Y86500D02*
X344000D01*
X338000Y82000D02*
Y86500D01*
X344000Y82000D02*
Y86500D01*
X300500Y60500D02*
Y72500D01*
X306500Y60500D02*
Y72500D01*
X328000Y105000D02*
Y109500D01*
X334000Y105000D02*
Y109500D01*
X328000Y105000D02*
X334000D01*
X328000Y118000D02*
X334000D01*
X328000Y113500D02*
Y118000D01*
X334000Y113500D02*
Y118000D01*
X277500Y98500D02*
X289500D01*
X277500Y104500D02*
X289500D01*
X312500Y108500D02*
X324500D01*
X312500Y114500D02*
X324500D01*
X277500Y112000D02*
X289500D01*
X277500Y106000D02*
X289500D01*
X312500Y122000D02*
X324500D01*
X312500Y116000D02*
X324500D01*
X314000Y68500D02*
Y73000D01*
X308000Y68500D02*
Y73000D01*
X314000D01*
X308000Y60000D02*
X314000D01*
Y64500D01*
X308000Y60000D02*
Y64500D01*
X277500Y121000D02*
X289500D01*
X277500Y127000D02*
X289500D01*
X315500Y128500D02*
X320000D01*
X315500Y134500D02*
X320000D01*
Y128500D02*
Y134500D01*
X307000Y128500D02*
Y134500D01*
Y128500D02*
X311500D01*
X307000Y134500D02*
X311500D01*
X331500Y68500D02*
Y73000D01*
X325500Y68500D02*
Y73000D01*
X331500D01*
X325500Y60000D02*
X331500D01*
Y64500D01*
X325500Y60000D02*
Y64500D01*
X285500Y113500D02*
X290000D01*
X285500Y119500D02*
X290000D01*
Y113500D02*
Y119500D01*
X277000Y113500D02*
Y119500D01*
Y113500D02*
X281500D01*
X277000Y119500D02*
X281500D01*
X290000Y134500D02*
X302000D01*
X290000Y128500D02*
X302000D01*
X315500Y136000D02*
X320000D01*
X315500Y142000D02*
X320000D01*
Y136000D02*
Y142000D01*
X307000Y136000D02*
Y142000D01*
Y136000D02*
X311500D01*
X307000Y142000D02*
X311500D01*
X339500Y54000D02*
X347500D01*
X339500Y50000D02*
Y54000D01*
X347500Y50000D02*
Y54000D01*
X339500Y34000D02*
X347500D01*
X339500D02*
Y38000D01*
X347500Y34000D02*
Y38000D01*
X290000Y142000D02*
X302000D01*
X290000Y136000D02*
X302000D01*
X739500Y261000D02*
Y265500D01*
X745500Y261000D02*
Y265500D01*
X739500Y261000D02*
X745500D01*
X739500Y274000D02*
X745500D01*
X739500Y269500D02*
Y274000D01*
X745500Y269500D02*
Y274000D01*
X222000Y133579D02*
X226031D01*
X210283D02*
X220657D01*
X222000D01*
X-45531Y119059D02*
X-42579D01*
X-52426D02*
X-42579D01*
X-52426Y76571D02*
Y119059D01*
Y76571D02*
X-42579D01*
Y119059D01*
X-20154Y20500D02*
X-8153D01*
X-20154Y14500D02*
X-8153D01*
X68910Y81000D02*
Y89000D01*
X64909D02*
X68910D01*
X64909Y81000D02*
X68910D01*
X48909D02*
Y89000D01*
X52909D01*
X48909Y81000D02*
X52909D01*
X76010Y92460D02*
X84809D01*
X76010D02*
Y98760D01*
X84809Y92460D02*
Y98760D01*
X76010Y107560D02*
X84809D01*
Y101185D02*
Y107560D01*
X76010Y101185D02*
Y107560D01*
X182008Y219094D02*
X185551D01*
X181614Y230906D02*
X185551D01*
X181614Y232087D02*
X185551D01*
X181614Y217913D02*
Y232087D01*
Y217913D02*
X185551D01*
X204449D02*
Y219094D01*
X185551Y217913D02*
X204449D01*
X185551D02*
Y219094D01*
Y230906D02*
Y232087D01*
X204449D01*
Y230906D02*
Y232087D01*
X64449Y168405D02*
X67992D01*
X64449Y156595D02*
X68386D01*
X64449Y155413D02*
X68386D01*
Y169587D01*
X64449D02*
X68386D01*
X45551Y168405D02*
Y170768D01*
X64449D01*
Y168405D02*
Y170768D01*
Y154232D02*
Y156595D01*
X45551Y154232D02*
X64449D01*
X45551D02*
Y156595D01*
X297000Y105500D02*
X305000D01*
Y109500D01*
X297000Y105500D02*
Y109500D01*
Y125500D02*
X305000D01*
Y121500D02*
Y125500D01*
X297000Y121500D02*
Y125500D01*
X298000Y76500D02*
Y80500D01*
X290000Y76500D02*
Y80500D01*
Y76500D02*
X298000D01*
Y92500D02*
Y96500D01*
X290000Y92500D02*
Y96500D01*
X298000D01*
X392460Y27600D02*
X404560D01*
X392460Y35400D02*
X404560D01*
X498000Y-104000D02*
X503000D01*
Y-74000D01*
X493000D02*
X503000D01*
X493000Y-104000D02*
Y-74000D01*
Y-104000D02*
X498000D01*
X515000Y165000D02*
X522500Y172500D01*
X542500D01*
X550000Y165000D01*
X545500Y169500D02*
X549500Y173500D01*
X557500D01*
X400000Y280000D02*
X720000D01*
Y242500D02*
Y280000D01*
Y242500D02*
X780000D01*
Y252500D01*
X730000D02*
X780000D01*
X730000D02*
Y280000D01*
X817500D01*
X390000Y-242500D02*
X555000D01*
X390000D02*
Y-237500D01*
X367500D02*
X390000D01*
X367500Y-240000D02*
Y-237500D01*
Y-242500D02*
Y-240000D01*
X290000Y-242500D02*
X367500D01*
X-57500Y280000D02*
X357500D01*
Y235000D02*
Y280000D01*
Y235000D02*
X400000D01*
Y280000D01*
X555000Y-242500D02*
Y-177500D01*
X290000Y-242500D02*
Y-2500D01*
X515000Y-177500D02*
X555000D01*
X515000D02*
Y-40000D01*
X-57500Y-15000D02*
X187500D01*
Y-2500D01*
X290000D01*
X-57500Y232500D02*
Y280000D01*
Y232500D02*
X-38700D01*
X-57500Y212500D02*
X-38700D01*
X-57500Y-15000D02*
Y212500D01*
X798700D02*
X817500D01*
X798700Y232500D02*
X817500D01*
X515000Y-40000D02*
X817500D01*
Y212500D01*
Y232500D02*
Y280000D01*
D99*
X529726Y96408D02*
G03*
X529726Y101408I0J2500D01*
G01*
X-33524Y142342D02*
G03*
X-33524Y147343I0J2500D01*
G01*
X529726Y91034D02*
Y96408D01*
X551774Y91034D02*
Y106781D01*
X529726Y101408D02*
Y106781D01*
Y95065D02*
X551774D01*
X730154Y207807D02*
Y213319D01*
X736846Y207807D02*
Y213319D01*
X729366Y207020D02*
X730154Y207807D01*
X736846D02*
X737634Y207020D01*
X274520Y96035D02*
X287480D01*
X274520Y75988D02*
X287480D01*
X274520D02*
Y96035D01*
X287480Y75988D02*
Y96035D01*
X236776Y142610D02*
Y145760D01*
X246224Y142610D02*
Y145760D01*
X189276Y145425D02*
Y148575D01*
X198724Y145425D02*
Y148575D01*
X763799Y272693D02*
X764193D01*
Y265409D02*
Y272693D01*
X750807D02*
X751201D01*
X750807Y265409D02*
Y272693D01*
Y259307D02*
Y266590D01*
Y259307D02*
X751201D01*
X763799D02*
X764193D01*
Y266590D01*
X63819Y92898D02*
Y105102D01*
X65000Y92898D02*
Y105102D01*
X63819D02*
X65000D01*
X63819Y92898D02*
X65000D01*
X-33524Y136969D02*
Y142342D01*
X-11476Y136969D02*
Y152717D01*
X-33524Y147343D02*
Y152717D01*
Y141000D02*
X-11476D01*
X75854Y20902D02*
Y63028D01*
X100146Y20902D02*
Y63028D01*
X210283Y158697D02*
X226031D01*
X461473Y-180646D02*
X503598D01*
X461473Y-156354D02*
X503598D01*
X690846Y228681D02*
X691634Y227894D01*
X683366D02*
X684154Y228681D01*
X690846D02*
Y234193D01*
X684154Y228681D02*
Y234193D01*
X226925Y57224D02*
X230075D01*
X226925Y47776D02*
X230075D01*
X260020Y96035D02*
X272980D01*
X260020Y75988D02*
X272980D01*
X260020D02*
Y96035D01*
X272980Y75988D02*
Y96035D01*
X360646Y91973D02*
Y134098D01*
X336354Y91973D02*
Y134098D01*
X351197Y39197D02*
Y88803D01*
Y39197D02*
X360252D01*
X351197Y88803D02*
X360252D01*
X351197D02*
X360252D01*
X351197Y39197D02*
X360252D01*
X351197D02*
Y88803D01*
X391748Y39197D02*
X400803D01*
X391748Y88803D02*
X400803D01*
Y39197D02*
Y88803D01*
X325402Y75500D02*
X328500D01*
X312000Y105000D02*
X324598D01*
X309000Y75500D02*
X311799Y75492D01*
X193402Y84646D02*
X235528D01*
X193402Y60354D02*
X235528D01*
X520000Y-235000D02*
Y-225000D01*
X470000Y-235000D02*
X520000D01*
X470000Y-225000D02*
X520000D01*
X470000Y-235000D02*
Y-225000D01*
X-8732Y93232D02*
X24732D01*
X-8732Y59768D02*
X24732D01*
X-8732D02*
Y93232D01*
X24732Y59768D02*
Y93232D01*
D100*
X497185Y25000D02*
G03*
X497185Y25000I-19685J0D01*
G01*
X766992Y272000D02*
G03*
X766992Y272000I-492J0D01*
G01*
X69626Y91716D02*
G03*
X69626Y91716I-492J0D01*
G01*
X97488Y52988D02*
G03*
X97488Y52988I-492J0D01*
G01*
X472004Y-159504D02*
G03*
X472004Y-159504I-492J0D01*
G01*
X119685Y150000D02*
G03*
X119685Y150000I-19685J0D01*
G01*
X339996Y102012D02*
G03*
X339996Y102012I-492J0D01*
G01*
X307772Y103370D02*
G03*
X307772Y103370I-492J0D01*
G01*
X225980Y63504D02*
G03*
X225980Y63504I-492J0D01*
G01*
X30343Y58980D02*
G03*
X30343Y58980I-492J0D01*
G01*
D101*
X46500Y133500D02*
G03*
X46500Y133500I-4000J0D01*
G01*
X248000Y62500D02*
G03*
X248000Y62500I-4000J0D01*
G01*
X31500Y142500D02*
G03*
X31500Y142500I-4000J0D01*
G01*
X136500Y145000D02*
G03*
X136500Y145000I-4000J0D01*
G01*
X181500Y157500D02*
G03*
X181500Y157500I-4000J0D01*
G01*
X449000Y-150000D02*
G03*
X449000Y-150000I-4000J0D01*
G01*
X232500Y92500D02*
G03*
X232500Y92500I-4000J0D01*
G01*
X466000Y-142500D02*
Y-140500D01*
X457000Y-146500D02*
Y-146000D01*
X466000Y-152000D02*
Y-150000D01*
X461500Y-140500D02*
X466000D01*
X461500Y-152000D02*
X466000D01*
X346000Y237500D02*
Y239500D01*
X337000Y233500D02*
Y234000D01*
X346000Y228000D02*
Y230000D01*
X341500Y239500D02*
X346000D01*
X341500Y228000D02*
X346000D01*
X564250Y92250D02*
X566250D01*
X569750Y83250D02*
X570250D01*
X573750Y92250D02*
X575750D01*
X564250Y87750D02*
Y92250D01*
X575750Y87750D02*
Y92250D01*
X788000Y-9000D02*
X790000D01*
X793500Y-18000D02*
X794000D01*
X797500Y-9000D02*
X799500D01*
X788000Y-13500D02*
Y-9000D01*
X799500Y-13500D02*
Y-9000D01*
X609000Y158500D02*
X710000D01*
Y121500D02*
Y158500D01*
X609000Y121500D02*
X710000D01*
Y140000D02*
X712500D01*
X607500D02*
X609000D01*
Y121500D02*
Y158500D01*
X789200Y15500D02*
X791200D01*
X794700Y6500D02*
X795200D01*
X798700Y15500D02*
X800700D01*
X789200Y11000D02*
Y15500D01*
X800700Y11000D02*
Y15500D01*
X131750Y151000D02*
X158250D01*
X131750Y169000D02*
X158250D01*
X526500Y233000D02*
X531000D01*
X526500Y244500D02*
X531000D01*
Y233000D02*
Y235000D01*
X522000Y238500D02*
Y239000D01*
X531000Y242500D02*
Y244500D01*
X40500Y19100D02*
Y45600D01*
X58500Y19100D02*
Y45600D01*
D102*
X100500Y72000D02*
G03*
X100500Y72000I-4000J0D01*
G01*
X469000Y-187500D02*
G03*
X469000Y-187500I-4000J0D01*
G01*
X501500Y-145000D02*
G03*
X501500Y-145000I-4000J0D01*
G01*
X516500Y210000D02*
G03*
X516500Y210000I-4000J0D01*
G01*
Y235000D02*
G03*
X516500Y235000I-4000J0D01*
G01*
Y245000D02*
G03*
X516500Y245000I-4000J0D01*
G01*
X384000Y-187500D02*
G03*
X384000Y-187500I-4000J0D01*
G01*
X386500Y-227500D02*
G03*
X386500Y-227500I-4000J0D01*
G01*
X726500Y205000D02*
G03*
X726500Y205000I-4000J0D01*
G01*
X704000Y215000D02*
G03*
X704000Y215000I-4000J0D01*
G01*
X24000Y118000D02*
G03*
X24000Y118000I-4000J0D01*
G01*
X16500Y110000D02*
G03*
X16500Y110000I-4000J0D01*
G01*
X38000Y11000D02*
G03*
X38000Y11000I-4000J0D01*
G01*
X27500Y17000D02*
G03*
X27500Y17000I-4000J0D01*
G01*
X326500Y207500D02*
G03*
X326500Y207500I-4000J0D01*
G01*
X329000Y232500D02*
G03*
X329000Y232500I-4000J0D01*
G01*
Y242500D02*
G03*
X329000Y242500I-4000J0D01*
G01*
X54409Y95000D02*
G03*
X54409Y95000I-4000J0D01*
G01*
X434000Y-190000D02*
G03*
X434000Y-190000I-4000J0D01*
G01*
X28168Y114666D02*
X27501Y113999D01*
Y112666D01*
X28168Y112000D01*
X30834D01*
X31500Y112666D01*
Y113999D01*
X30834Y114666D01*
X31500Y115999D02*
Y117332D01*
Y116665D01*
X27501D01*
X28168Y115999D01*
X31500Y121330D02*
X27501D01*
X29501Y119331D01*
Y121997D01*
X-22500Y101999D02*
Y98666D01*
X-21834Y98000D01*
X-20501D01*
X-19834Y98666D01*
Y101999D01*
X-15835D02*
X-17168Y101332D01*
X-18501Y99999D01*
Y98666D01*
X-17835Y98000D01*
X-16502D01*
X-15835Y98666D01*
Y99333D01*
X-16502Y99999D01*
X-18501D01*
X46000Y-1D02*
Y-668D01*
X47333Y-2001D01*
X48666Y-668D01*
Y-1D01*
X47333Y-2001D02*
Y-4000D01*
X49999D02*
X51332D01*
X50665D01*
Y-1D01*
X49999Y-668D01*
X485501Y-92000D02*
X489500D01*
X488167Y-90667D01*
X489500Y-89334D01*
X485501D01*
X489500Y-88001D02*
Y-86668D01*
Y-87335D01*
X485501D01*
X486168Y-88001D01*
X74666Y5332D02*
X73999Y5999D01*
X72666D01*
X72000Y5332D01*
Y2667D01*
X72666Y2000D01*
X73999D01*
X74666Y2667D01*
X75999Y5332D02*
X76665Y5999D01*
X77998D01*
X78664Y5332D01*
Y4666D01*
X77998Y3999D01*
X77332D01*
X77998D01*
X78664Y3333D01*
Y2667D01*
X77998Y2000D01*
X76665D01*
X75999Y2667D01*
X79997Y5999D02*
X82663D01*
Y5332D01*
X79997Y2667D01*
Y2000D01*
X59821Y66666D02*
X59155Y65999D01*
Y64666D01*
X59821Y64000D01*
X62487D01*
X63153Y64666D01*
Y65999D01*
X62487Y66666D01*
X63153Y70665D02*
Y67999D01*
X60488Y70665D01*
X59821D01*
X59155Y69998D01*
Y68665D01*
X59821Y67999D01*
X63153Y73997D02*
X59155D01*
X61154Y71997D01*
Y74663D01*
X337500Y221499D02*
Y217500D01*
X339499D01*
X340166Y218166D01*
Y220832D01*
X339499Y221499D01*
X337500D01*
X344164Y217500D02*
X341499D01*
X344164Y220166D01*
Y220832D01*
X343498Y221499D01*
X342165D01*
X341499Y220832D01*
X525000Y-227500D02*
Y-223501D01*
X526999D01*
X527666Y-224168D01*
Y-225501D01*
X526999Y-226167D01*
X525000D01*
X528999Y-224168D02*
X529665Y-223501D01*
X530998D01*
X531665Y-224168D01*
Y-224834D01*
X530998Y-225501D01*
X530332D01*
X530998D01*
X531665Y-226167D01*
Y-226834D01*
X530998Y-227500D01*
X529665D01*
X528999Y-226834D01*
X242166Y133332D02*
X241499Y133999D01*
X240166D01*
X239500Y133332D01*
Y130666D01*
X240166Y130000D01*
X241499D01*
X242166Y130666D01*
X243499D02*
X244165Y130000D01*
X245498D01*
X246164Y130666D01*
Y133332D01*
X245498Y133999D01*
X244165D01*
X243499Y133332D01*
Y132666D01*
X244165Y131999D01*
X246164D01*
X193666Y136832D02*
X192999Y137499D01*
X191666D01*
X191000Y136832D01*
Y134167D01*
X191666Y133500D01*
X192999D01*
X193666Y134167D01*
X194999Y136832D02*
X195665Y137499D01*
X196998D01*
X197664Y136832D01*
Y136166D01*
X196998Y135499D01*
X197664Y134833D01*
Y134167D01*
X196998Y133500D01*
X195665D01*
X194999Y134167D01*
Y134833D01*
X195665Y135499D01*
X194999Y136166D01*
Y136832D01*
X195665Y135499D02*
X196998D01*
X199500Y49499D02*
Y46166D01*
X200167Y45500D01*
X201499D01*
X202166Y46166D01*
Y49499D01*
X203499Y46166D02*
X204165Y45500D01*
X205498D01*
X206165Y46166D01*
Y48832D01*
X205498Y49499D01*
X204165D01*
X203499Y48832D01*
Y48166D01*
X204165Y47499D01*
X206165D01*
X121500Y50500D02*
X117501D01*
Y52499D01*
X118168Y53166D01*
X119501D01*
X120167Y52499D01*
Y50500D01*
Y51833D02*
X121500Y53166D01*
X118168Y54499D02*
X117501Y55165D01*
Y56498D01*
X118168Y57165D01*
X118834D01*
X119501Y56498D01*
Y55832D01*
Y56498D01*
X120167Y57165D01*
X120834D01*
X121500Y56498D01*
Y55165D01*
X120834Y54499D01*
X121500Y60497D02*
X117501D01*
X119501Y58497D01*
Y61163D01*
X151000Y93500D02*
X147001D01*
Y95499D01*
X147668Y96166D01*
X149001D01*
X149667Y95499D01*
Y93500D01*
Y94833D02*
X151000Y96166D01*
Y100164D02*
Y97499D01*
X148334Y100164D01*
X147668D01*
X147001Y99498D01*
Y98165D01*
X147668Y97499D01*
X150333Y101497D02*
X151000Y102164D01*
Y103497D01*
X150333Y104163D01*
X147668D01*
X147001Y103497D01*
Y102164D01*
X147668Y101497D01*
X148334D01*
X149001Y102164D01*
Y104163D01*
X307001Y106000D02*
X310334D01*
X311000Y106667D01*
Y107999D01*
X310334Y108666D01*
X307001D01*
Y109999D02*
Y112664D01*
X307668D01*
X310334Y109999D01*
X311000D01*
X37000Y143665D02*
X37833Y144498D01*
X39499D01*
X40332Y143665D01*
Y142832D01*
X39499Y141999D01*
X38666D01*
X39499D01*
X40332Y141166D01*
Y140333D01*
X39499Y139500D01*
X37833D01*
X37000Y140333D01*
X41998Y139500D02*
Y140333D01*
X42831D01*
Y139500D01*
X41998D01*
X46164Y143665D02*
X46997Y144498D01*
X48663D01*
X49496Y143665D01*
Y142832D01*
X48663Y141999D01*
X47830D01*
X48663D01*
X49496Y141166D01*
Y140333D01*
X48663Y139500D01*
X46997D01*
X46164Y140333D01*
X51162Y144498D02*
Y139500D01*
X52828Y141166D01*
X54494Y139500D01*
Y144498D01*
X56160D02*
Y139500D01*
X58660D01*
X59493Y140333D01*
Y143665D01*
X58660Y144498D01*
X56160D01*
X238000Y170000D02*
Y173999D01*
X239999D01*
X240666Y173332D01*
Y171999D01*
X239999Y171333D01*
X238000D01*
X239333D02*
X240666Y170000D01*
X241999D02*
X243332D01*
X242665D01*
Y173999D01*
X241999Y173332D01*
X247330Y170000D02*
Y173999D01*
X245331Y171999D01*
X247997D01*
X291500Y39000D02*
X287501D01*
Y40999D01*
X288168Y41666D01*
X289501D01*
X290167Y40999D01*
Y39000D01*
Y40333D02*
X291500Y41666D01*
X288168Y42999D02*
X287501Y43665D01*
Y44998D01*
X288168Y45665D01*
X288834D01*
X289501Y44998D01*
Y44332D01*
Y44998D01*
X290167Y45665D01*
X290834D01*
X291500Y44998D01*
Y43665D01*
X290834Y42999D01*
X287501Y49663D02*
Y46997D01*
X289501D01*
X288834Y48330D01*
Y48997D01*
X289501Y49663D01*
X290834D01*
X291500Y48997D01*
Y47664D01*
X290834Y46997D01*
X288000Y60000D02*
Y63999D01*
X289999D01*
X290666Y63332D01*
Y61999D01*
X289999Y61333D01*
X288000D01*
X289333D02*
X290666Y60000D01*
X291999Y63332D02*
X292665Y63999D01*
X293998D01*
X294665Y63332D01*
Y62666D01*
X293998Y61999D01*
X293332D01*
X293998D01*
X294665Y61333D01*
Y60666D01*
X293998Y60000D01*
X292665D01*
X291999Y60666D01*
X298663Y60000D02*
X295997D01*
X298663Y62666D01*
Y63332D01*
X297997Y63999D01*
X296664D01*
X295997Y63332D01*
X261000Y101000D02*
Y104999D01*
X262999D01*
X263666Y104332D01*
Y102999D01*
X262999Y102333D01*
X261000D01*
X262333D02*
X263666Y101000D01*
X264999Y104332D02*
X265665Y104999D01*
X266998D01*
X267665Y104332D01*
Y103666D01*
X266998Y102999D01*
X266332D01*
X266998D01*
X267665Y102333D01*
Y101666D01*
X266998Y101000D01*
X265665D01*
X264999Y101666D01*
X268997Y104332D02*
X269664Y104999D01*
X270997D01*
X271663Y104332D01*
Y101666D01*
X270997Y101000D01*
X269664D01*
X268997Y101666D01*
Y104332D01*
X266000Y107000D02*
Y110999D01*
X267999D01*
X268666Y110332D01*
Y108999D01*
X267999Y108333D01*
X266000D01*
X267333D02*
X268666Y107000D01*
X272664D02*
X269999D01*
X272664Y109666D01*
Y110332D01*
X271998Y110999D01*
X270665D01*
X269999Y110332D01*
X276663Y110999D02*
X273997D01*
Y108999D01*
X275330Y109666D01*
X275997D01*
X276663Y108999D01*
Y107667D01*
X275997Y107000D01*
X274664D01*
X273997Y107667D01*
X327000Y123500D02*
X323001D01*
Y125499D01*
X323668Y126166D01*
X325001D01*
X325667Y125499D01*
Y123500D01*
Y124833D02*
X327000Y126166D01*
Y130165D02*
Y127499D01*
X324334Y130165D01*
X323668D01*
X323001Y129498D01*
Y128165D01*
X323668Y127499D01*
X327000Y134163D02*
Y131497D01*
X324334Y134163D01*
X323668D01*
X323001Y133497D01*
Y132164D01*
X323668Y131497D01*
X263500Y121500D02*
Y125499D01*
X265499D01*
X266166Y124832D01*
Y123499D01*
X265499Y122833D01*
X263500D01*
X264833D02*
X266166Y121500D01*
X270164D02*
X267499D01*
X270164Y124166D01*
Y124832D01*
X269498Y125499D01*
X268165D01*
X267499Y124832D01*
X271497Y121500D02*
X272830D01*
X272164D01*
Y125499D01*
X271497Y124832D01*
X278500Y129000D02*
Y132999D01*
X280499D01*
X281166Y132332D01*
Y130999D01*
X280499Y130333D01*
X278500D01*
X279833D02*
X281166Y129000D01*
X285164D02*
X282499D01*
X285164Y131666D01*
Y132332D01*
X284498Y132999D01*
X283165D01*
X282499Y132332D01*
X286497D02*
X287164Y132999D01*
X288497D01*
X289163Y132332D01*
Y129666D01*
X288497Y129000D01*
X287164D01*
X286497Y129666D01*
Y132332D01*
X279000Y136500D02*
Y140499D01*
X280999D01*
X281666Y139832D01*
Y138499D01*
X280999Y137833D01*
X279000D01*
X280333D02*
X281666Y136500D01*
X282999D02*
X284332D01*
X283665D01*
Y140499D01*
X282999Y139832D01*
X286331D02*
X286997Y140499D01*
X288330D01*
X288997Y139832D01*
Y139166D01*
X288330Y138499D01*
X288997Y137833D01*
Y137167D01*
X288330Y136500D01*
X286997D01*
X286331Y137167D01*
Y137833D01*
X286997Y138499D01*
X286331Y139166D01*
Y139832D01*
X286997Y138499D02*
X288330D01*
X407500Y33499D02*
Y29500D01*
X410166D01*
X414164D02*
X411499D01*
X414164Y32166D01*
Y32832D01*
X413498Y33499D01*
X412165D01*
X411499Y32832D01*
X390500Y101499D02*
Y97500D01*
X393166D01*
X394499D02*
X395832D01*
X395165D01*
Y101499D01*
X394499Y100832D01*
X498501Y-129500D02*
X502500D01*
Y-127501D01*
X501834Y-126834D01*
X499168D01*
X498501Y-127501D01*
Y-129500D01*
X499168Y-122836D02*
X498501Y-123502D01*
Y-124835D01*
X499168Y-125501D01*
X499834D01*
X500501Y-124835D01*
Y-123502D01*
X501167Y-122836D01*
X501834D01*
X502500Y-123502D01*
Y-124835D01*
X501834Y-125501D01*
X502500Y-119503D02*
X498501D01*
X500501Y-121503D01*
Y-118837D01*
X343500Y142999D02*
Y139000D01*
X345499D01*
X346166Y139666D01*
Y142332D01*
X345499Y142999D01*
X343500D01*
X347499Y139666D02*
X348165Y139000D01*
X349498D01*
X350165Y139666D01*
Y142332D01*
X349498Y142999D01*
X348165D01*
X347499Y142332D01*
Y141666D01*
X348165Y140999D01*
X350165D01*
X317666Y35332D02*
X316999Y35999D01*
X315666D01*
X315000Y35332D01*
Y32666D01*
X315666Y32000D01*
X316999D01*
X317666Y32666D01*
X318999Y35332D02*
X319665Y35999D01*
X320998D01*
X321665Y35332D01*
Y34666D01*
X320998Y33999D01*
X320332D01*
X320998D01*
X321665Y33333D01*
Y32666D01*
X320998Y32000D01*
X319665D01*
X318999Y32666D01*
X324997Y32000D02*
Y35999D01*
X322997Y33999D01*
X325663D01*
X353666Y36332D02*
X352999Y36999D01*
X351666D01*
X351000Y36332D01*
Y33666D01*
X351666Y33000D01*
X352999D01*
X353666Y33666D01*
X354999Y36332D02*
X355665Y36999D01*
X356998D01*
X357664Y36332D01*
Y35666D01*
X356998Y34999D01*
X356332D01*
X356998D01*
X357664Y34333D01*
Y33666D01*
X356998Y33000D01*
X355665D01*
X354999Y33666D01*
X361663Y36999D02*
X358997D01*
Y34999D01*
X360330Y35666D01*
X360997D01*
X361663Y34999D01*
Y33666D01*
X360997Y33000D01*
X359664D01*
X358997Y33666D01*
X346668Y77666D02*
X346001Y76999D01*
Y75666D01*
X346668Y75000D01*
X349334D01*
X350000Y75666D01*
Y76999D01*
X349334Y77666D01*
X350000Y81665D02*
Y78999D01*
X347334Y81665D01*
X346668D01*
X346001Y80998D01*
Y79665D01*
X346668Y78999D01*
X346001Y82997D02*
Y85663D01*
X346668D01*
X349334Y82997D01*
X350000D01*
X333668Y63666D02*
X333001Y62999D01*
Y61666D01*
X333668Y61000D01*
X336334D01*
X337000Y61666D01*
Y62999D01*
X336334Y63666D01*
X333668Y64999D02*
X333001Y65665D01*
Y66998D01*
X333668Y67664D01*
X334334D01*
X335001Y66998D01*
Y66332D01*
Y66998D01*
X335667Y67664D01*
X336334D01*
X337000Y66998D01*
Y65665D01*
X336334Y64999D01*
X337000Y68997D02*
Y70330D01*
Y69664D01*
X333001D01*
X333668Y68997D01*
X315668Y64666D02*
X315001Y63999D01*
Y62666D01*
X315668Y62000D01*
X318334D01*
X319000Y62666D01*
Y63999D01*
X318334Y64666D01*
X315668Y65999D02*
X315001Y66665D01*
Y67998D01*
X315668Y68664D01*
X316334D01*
X317001Y67998D01*
Y67332D01*
Y67998D01*
X317667Y68664D01*
X318334D01*
X319000Y67998D01*
Y66665D01*
X318334Y65999D01*
X315668Y69997D02*
X315001Y70664D01*
Y71997D01*
X315668Y72663D01*
X318334D01*
X319000Y71997D01*
Y70664D01*
X318334Y69997D01*
X315668D01*
X497666Y40832D02*
X496999Y41499D01*
X495666D01*
X495000Y40832D01*
Y38166D01*
X495666Y37500D01*
X496999D01*
X497666Y38166D01*
X498999Y40832D02*
X499665Y41499D01*
X500998D01*
X501664Y40832D01*
Y40166D01*
X500998Y39499D01*
X500332D01*
X500998D01*
X501664Y38833D01*
Y38166D01*
X500998Y37500D01*
X499665D01*
X498999Y38166D01*
X502997Y40832D02*
X503664Y41499D01*
X504997D01*
X505663Y40832D01*
Y40166D01*
X504997Y39499D01*
X505663Y38833D01*
Y38166D01*
X504997Y37500D01*
X503664D01*
X502997Y38166D01*
Y38833D01*
X503664Y39499D01*
X502997Y40166D01*
Y40832D01*
X503664Y39499D02*
X504997D01*
X279168Y64166D02*
X278501Y63499D01*
Y62166D01*
X279168Y61500D01*
X281834D01*
X282500Y62166D01*
Y63499D01*
X281834Y64166D01*
X282500Y68164D02*
Y65499D01*
X279834Y68164D01*
X279168D01*
X278501Y67498D01*
Y66165D01*
X279168Y65499D01*
Y69497D02*
X278501Y70164D01*
Y71497D01*
X279168Y72163D01*
X279834D01*
X280501Y71497D01*
Y70830D01*
Y71497D01*
X281167Y72163D01*
X281834D01*
X282500Y71497D01*
Y70164D01*
X281834Y69497D01*
X265668Y65666D02*
X265001Y64999D01*
Y63666D01*
X265668Y63000D01*
X268334D01*
X269000Y63666D01*
Y64999D01*
X268334Y65666D01*
X269000Y69665D02*
Y66999D01*
X266334Y69665D01*
X265668D01*
X265001Y68998D01*
Y67665D01*
X265668Y66999D01*
X269000Y73663D02*
Y70997D01*
X266334Y73663D01*
X265668D01*
X265001Y72997D01*
Y71664D01*
X265668Y70997D01*
X291166Y69332D02*
X290499Y69999D01*
X289166D01*
X288500Y69332D01*
Y66666D01*
X289166Y66000D01*
X290499D01*
X291166Y66666D01*
X295164Y66000D02*
X292499D01*
X295164Y68666D01*
Y69332D01*
X294498Y69999D01*
X293165D01*
X292499Y69332D01*
X296497Y66000D02*
X297830D01*
X297164D01*
Y69999D01*
X296497Y69332D01*
X227666Y43332D02*
X226999Y43999D01*
X225666D01*
X225000Y43332D01*
Y40666D01*
X225666Y40000D01*
X226999D01*
X227666Y40666D01*
X228999Y43332D02*
X229665Y43999D01*
X230998D01*
X231664Y43332D01*
Y42666D01*
X230998Y41999D01*
X230332D01*
X230998D01*
X231664Y41333D01*
Y40666D01*
X230998Y40000D01*
X229665D01*
X228999Y40666D01*
X235663Y43999D02*
X234330Y43332D01*
X232997Y41999D01*
Y40666D01*
X233664Y40000D01*
X234997D01*
X235663Y40666D01*
Y41333D01*
X234997Y41999D01*
X232997D01*
X263666Y117832D02*
X262999Y118499D01*
X261666D01*
X261000Y117832D01*
Y115166D01*
X261666Y114500D01*
X262999D01*
X263666Y115166D01*
X264999Y114500D02*
X266332D01*
X265665D01*
Y118499D01*
X264999Y117832D01*
X268331Y118499D02*
X270997D01*
Y117832D01*
X268331Y115166D01*
Y114500D01*
X314166Y126832D02*
X313499Y127499D01*
X312166D01*
X311500Y126832D01*
Y124167D01*
X312166Y123500D01*
X313499D01*
X314166Y124167D01*
X315499Y123500D02*
X316832D01*
X316165D01*
Y127499D01*
X315499Y126832D01*
X321497Y123500D02*
X318831D01*
X321497Y126166D01*
Y126832D01*
X320830Y127499D01*
X319497D01*
X318831Y126832D01*
X312166Y146832D02*
X311499Y147499D01*
X310166D01*
X309500Y146832D01*
Y144167D01*
X310166Y143500D01*
X311499D01*
X312166Y144167D01*
X313499Y143500D02*
X314832D01*
X314165D01*
Y147499D01*
X313499Y146832D01*
X316831Y143500D02*
X318164D01*
X317497D01*
Y147499D01*
X316831Y146832D01*
X294666Y103332D02*
X293999Y103999D01*
X292666D01*
X292000Y103332D01*
Y100666D01*
X292666Y100000D01*
X293999D01*
X294666Y100666D01*
X295999Y100000D02*
X297332D01*
X296665D01*
Y103999D01*
X295999Y103332D01*
X301997Y103999D02*
X300664Y103332D01*
X299331Y101999D01*
Y100666D01*
X299997Y100000D01*
X301330D01*
X301997Y100666D01*
Y101333D01*
X301330Y101999D01*
X299331D01*
X172500Y208999D02*
Y205000D01*
X174499D01*
X175166Y205666D01*
Y208332D01*
X174499Y208999D01*
X172500D01*
X179165D02*
X177832Y208332D01*
X176499Y206999D01*
Y205666D01*
X177165Y205000D01*
X178498D01*
X179165Y205666D01*
Y206333D01*
X178498Y206999D01*
X176499D01*
X536499Y232500D02*
X532500D01*
Y230501D01*
X533166Y229834D01*
X535832D01*
X536499Y230501D01*
Y232500D01*
X532500Y228501D02*
Y227168D01*
Y227835D01*
X536499D01*
X535832Y228501D01*
X70000Y161499D02*
Y157500D01*
X71999D01*
X72666Y158167D01*
Y160832D01*
X71999Y161499D01*
X70000D01*
X73999D02*
X76665D01*
Y160832D01*
X73999Y158167D01*
Y157500D01*
X172500Y226499D02*
Y222500D01*
X174499D01*
X175166Y223166D01*
Y225832D01*
X174499Y226499D01*
X172500D01*
X176499Y225832D02*
X177165Y226499D01*
X178498D01*
X179165Y225832D01*
Y225166D01*
X178498Y224499D01*
X177832D01*
X178498D01*
X179165Y223833D01*
Y223166D01*
X178498Y222500D01*
X177165D01*
X176499Y223166D01*
X732001Y220563D02*
X736000D01*
Y222562D01*
X735334Y223229D01*
X732668D01*
X732001Y222562D01*
Y220563D01*
Y227227D02*
Y224562D01*
X734001D01*
X733334Y225895D01*
Y226561D01*
X734001Y227227D01*
X735334D01*
X736000Y226561D01*
Y225228D01*
X735334Y224562D01*
X140000Y147498D02*
Y144166D01*
X141666Y142500D01*
X143332Y144166D01*
Y147498D01*
X144998D02*
X146665D01*
X145831D01*
Y142500D01*
X144998D01*
X146665D01*
X149164D02*
Y147498D01*
X152496Y142500D01*
Y147498D01*
X184000Y163498D02*
Y160166D01*
X185666Y158500D01*
X187332Y160166D01*
Y163498D01*
X188998D02*
X190665D01*
X189831D01*
Y158500D01*
X188998D01*
X190665D01*
X72666Y138332D02*
X71999Y138999D01*
X70666D01*
X70000Y138332D01*
Y135667D01*
X70666Y135000D01*
X71999D01*
X72666Y135667D01*
X76665Y138999D02*
X75332Y138332D01*
X73999Y136999D01*
Y135667D01*
X74665Y135000D01*
X75998D01*
X76665Y135667D01*
Y136333D01*
X75998Y136999D01*
X73999D01*
X106168Y32166D02*
X105501Y31499D01*
Y30166D01*
X106168Y29500D01*
X108834D01*
X109500Y30166D01*
Y31499D01*
X108834Y32166D01*
X109500Y36165D02*
Y33499D01*
X106834Y36165D01*
X106168D01*
X105501Y35498D01*
Y34165D01*
X106168Y33499D01*
X108834Y37497D02*
X109500Y38164D01*
Y39497D01*
X108834Y40163D01*
X106168D01*
X105501Y39497D01*
Y38164D01*
X106168Y37497D01*
X106834D01*
X107501Y38164D01*
Y40163D01*
X68168Y32166D02*
X67501Y31499D01*
Y30166D01*
X68168Y29500D01*
X70834D01*
X71500Y30166D01*
Y31499D01*
X70834Y32166D01*
X71500Y36165D02*
Y33499D01*
X68834Y36165D01*
X68168D01*
X67501Y35498D01*
Y34165D01*
X68168Y33499D01*
Y37497D02*
X67501Y38164D01*
Y39497D01*
X68168Y40163D01*
X68834D01*
X69501Y39497D01*
X70167Y40163D01*
X70834D01*
X71500Y39497D01*
Y38164D01*
X70834Y37497D01*
X70167D01*
X69501Y38164D01*
X68834Y37497D01*
X68168D01*
X69501Y38164D02*
Y39497D01*
X62166Y208332D02*
X61499Y208999D01*
X60166D01*
X59500Y208332D01*
Y205666D01*
X60166Y205000D01*
X61499D01*
X62166Y205666D01*
X65498Y205000D02*
Y208999D01*
X63499Y206999D01*
X66164D01*
X42166Y207832D02*
X41499Y208499D01*
X40166D01*
X39500Y207832D01*
Y205166D01*
X40166Y204500D01*
X41499D01*
X42166Y205166D01*
X46165Y208499D02*
X43499D01*
Y206499D01*
X44832Y207166D01*
X45498D01*
X46165Y206499D01*
Y205166D01*
X45498Y204500D01*
X44165D01*
X43499Y205166D01*
X563418Y103416D02*
X562751Y102749D01*
Y101416D01*
X563418Y100750D01*
X566084D01*
X566750Y101416D01*
Y102749D01*
X566084Y103416D01*
X566750Y104749D02*
Y106082D01*
Y105415D01*
X562751D01*
X563418Y104749D01*
Y108081D02*
X562751Y108747D01*
Y110080D01*
X563418Y110747D01*
X566084D01*
X566750Y110080D01*
Y108747D01*
X566084Y108081D01*
X563418D01*
X742668Y227166D02*
X742001Y226499D01*
Y225166D01*
X742668Y224500D01*
X745334D01*
X746000Y225166D01*
Y226499D01*
X745334Y227166D01*
X742668Y228499D02*
X742001Y229165D01*
Y230498D01*
X742668Y231165D01*
X743334D01*
X744001Y230498D01*
Y229832D01*
Y230498D01*
X744667Y231165D01*
X745334D01*
X746000Y230498D01*
Y229165D01*
X745334Y228499D01*
X-30832Y74666D02*
X-31499Y73999D01*
Y72666D01*
X-30832Y72000D01*
X-28166D01*
X-27500Y72666D01*
Y73999D01*
X-28166Y74666D01*
X-27500Y78664D02*
Y75999D01*
X-30166Y78664D01*
X-30832D01*
X-31499Y77998D01*
Y76665D01*
X-30832Y75999D01*
X-31499Y82663D02*
Y79997D01*
X-29499D01*
X-30166Y81330D01*
Y81997D01*
X-29499Y82663D01*
X-28166D01*
X-27500Y81997D01*
Y80664D01*
X-28166Y79997D01*
X-25488Y110332D02*
X-26154Y110999D01*
X-27487D01*
X-28153Y110332D01*
Y107667D01*
X-27487Y107000D01*
X-26154D01*
X-25488Y107667D01*
X-24155Y107000D02*
X-22822D01*
X-23488D01*
Y110999D01*
X-24155Y110332D01*
X-20823D02*
X-20156Y110999D01*
X-18823D01*
X-18157Y110332D01*
Y109666D01*
X-18823Y108999D01*
X-19490D01*
X-18823D01*
X-18157Y108333D01*
Y107667D01*
X-18823Y107000D01*
X-20156D01*
X-20823Y107667D01*
X-21332Y41666D02*
X-21999Y40999D01*
Y39666D01*
X-21332Y39000D01*
X-18666D01*
X-18000Y39666D01*
Y40999D01*
X-18666Y41666D01*
X-18000Y45665D02*
Y42999D01*
X-20666Y45665D01*
X-21332D01*
X-21999Y44998D01*
Y43665D01*
X-21332Y42999D01*
X-21999Y49663D02*
X-21332Y48330D01*
X-19999Y46997D01*
X-18666D01*
X-18000Y47664D01*
Y48997D01*
X-18666Y49663D01*
X-19333D01*
X-19999Y48997D01*
Y46997D01*
X22973Y39832D02*
X22306Y40499D01*
X20974D01*
X20307Y39832D01*
Y37166D01*
X20974Y36500D01*
X22306D01*
X22973Y37166D01*
X24306Y39832D02*
X24972Y40499D01*
X26305D01*
X26972Y39832D01*
Y39166D01*
X26305Y38499D01*
X25639D01*
X26305D01*
X26972Y37833D01*
Y37166D01*
X26305Y36500D01*
X24972D01*
X24306Y37166D01*
X30970Y36500D02*
X28304D01*
X30970Y39166D01*
Y39832D01*
X30304Y40499D01*
X28971D01*
X28304Y39832D01*
X699168Y250166D02*
X698501Y249499D01*
Y248166D01*
X699168Y247500D01*
X701834D01*
X702500Y248166D01*
Y249499D01*
X701834Y250166D01*
X702500Y254165D02*
Y251499D01*
X699834Y254165D01*
X699168D01*
X698501Y253498D01*
Y252165D01*
X699168Y251499D01*
X-3332Y132666D02*
X-3999Y131999D01*
Y130666D01*
X-3332Y130000D01*
X-667D01*
X0Y130666D01*
Y131999D01*
X-667Y132666D01*
X-3999Y133999D02*
Y136664D01*
X-3332D01*
X-667Y133999D01*
X0D01*
X35168Y93012D02*
X34501Y92346D01*
Y91013D01*
X35168Y90346D01*
X37834D01*
X38500Y91013D01*
Y92346D01*
X37834Y93012D01*
X38500Y97011D02*
Y94345D01*
X35834Y97011D01*
X35168D01*
X34501Y96345D01*
Y95012D01*
X35168Y94345D01*
Y98344D02*
X34501Y99010D01*
Y100343D01*
X35168Y101010D01*
X37834D01*
X38500Y100343D01*
Y99010D01*
X37834Y98344D01*
X35168D01*
X78075Y88332D02*
X77409Y88999D01*
X76076D01*
X75410Y88332D01*
Y85666D01*
X76076Y85000D01*
X77409D01*
X78075Y85666D01*
X79408Y85000D02*
X80741D01*
X80075D01*
Y88999D01*
X79408Y88332D01*
X85406Y88999D02*
X82740D01*
Y86999D01*
X84073Y87666D01*
X84740D01*
X85406Y86999D01*
Y85666D01*
X84740Y85000D01*
X83407D01*
X82740Y85666D01*
X44168Y83166D02*
X43501Y82499D01*
Y81166D01*
X44168Y80500D01*
X46834D01*
X47500Y81166D01*
Y82499D01*
X46834Y83166D01*
X47500Y84499D02*
Y85832D01*
Y85165D01*
X43501D01*
X44168Y84499D01*
X46834Y87831D02*
X47500Y88497D01*
Y89830D01*
X46834Y90497D01*
X44168D01*
X43501Y89830D01*
Y88497D01*
X44168Y87831D01*
X44834D01*
X45501Y88497D01*
Y90497D01*
X-12334Y34332D02*
X-13001Y34999D01*
X-14333D01*
X-15000Y34332D01*
Y31666D01*
X-14333Y31000D01*
X-13001D01*
X-12334Y31666D01*
X-11001Y34332D02*
X-10335Y34999D01*
X-9002D01*
X-8336Y34332D01*
Y33666D01*
X-9002Y32999D01*
X-9668D01*
X-9002D01*
X-8336Y32333D01*
Y31666D01*
X-9002Y31000D01*
X-10335D01*
X-11001Y31666D01*
X-7003Y34332D02*
X-6336Y34999D01*
X-5003D01*
X-4337Y34332D01*
Y33666D01*
X-5003Y32999D01*
X-5670D01*
X-5003D01*
X-4337Y32333D01*
Y31666D01*
X-5003Y31000D01*
X-6336D01*
X-7003Y31666D01*
X686001Y240000D02*
X690000D01*
Y241999D01*
X689334Y242666D01*
X686668D01*
X686001Y241999D01*
Y240000D01*
X690000Y245998D02*
X686001D01*
X688001Y243999D01*
Y246665D01*
X83911Y112500D02*
X87910D01*
Y114499D01*
X87243Y115166D01*
X84577D01*
X83911Y114499D01*
Y112500D01*
X84577Y116499D02*
X83911Y117165D01*
Y118498D01*
X84577Y119165D01*
X85244D01*
X85910Y118498D01*
X86576Y119165D01*
X87243D01*
X87910Y118498D01*
Y117165D01*
X87243Y116499D01*
X86576D01*
X85910Y117165D01*
X85244Y116499D01*
X84577D01*
X85910Y117165D02*
Y118498D01*
X789000Y-23001D02*
Y-27000D01*
X790999D01*
X791666Y-26334D01*
Y-23668D01*
X790999Y-23001D01*
X789000D01*
X795665Y-23668D02*
X794998Y-23001D01*
X793665D01*
X792999Y-23668D01*
Y-24334D01*
X793665Y-25001D01*
X794998D01*
X795665Y-25667D01*
Y-26334D01*
X794998Y-27000D01*
X793665D01*
X792999Y-26334D01*
X796997Y-23668D02*
X797664Y-23001D01*
X798997D01*
X799663Y-23668D01*
Y-24334D01*
X798997Y-25001D01*
X798330D01*
X798997D01*
X799663Y-25667D01*
Y-26334D01*
X798997Y-27000D01*
X797664D01*
X796997Y-26334D01*
X792000Y2499D02*
Y-1500D01*
X793999D01*
X794666Y-833D01*
Y1832D01*
X793999Y2499D01*
X792000D01*
X798665Y1832D02*
X797998Y2499D01*
X796665D01*
X795999Y1832D01*
Y1166D01*
X796665Y499D01*
X797998D01*
X798665Y-167D01*
Y-833D01*
X797998Y-1500D01*
X796665D01*
X795999Y-833D01*
X802663Y-1500D02*
X799997D01*
X802663Y1166D01*
Y1832D01*
X801997Y2499D01*
X800664D01*
X799997Y1832D01*
X-49000Y65999D02*
Y62000D01*
X-47001D01*
X-46334Y62666D01*
Y65332D01*
X-47001Y65999D01*
X-49000D01*
X-42336Y65332D02*
X-43002Y65999D01*
X-44335D01*
X-45001Y65332D01*
Y64666D01*
X-44335Y63999D01*
X-43002D01*
X-42336Y63333D01*
Y62666D01*
X-43002Y62000D01*
X-44335D01*
X-45001Y62666D01*
X-41003Y62000D02*
X-39670D01*
X-40336D01*
Y65999D01*
X-41003Y65332D01*
X167500Y171499D02*
X168833D01*
X168166D01*
Y167500D01*
X167500D01*
X168833D01*
X173498Y170832D02*
X172832Y171499D01*
X171499D01*
X170832Y170832D01*
Y168166D01*
X171499Y167500D01*
X172832D01*
X173498Y168166D01*
X174831Y171499D02*
Y167500D01*
X177497D01*
X178830D02*
X180163D01*
X179496D01*
Y171499D01*
X178830Y170832D01*
X405000Y-190000D02*
Y-186001D01*
X406999D01*
X407666Y-186668D01*
Y-188001D01*
X406999Y-188667D01*
X405000D01*
X411664Y-190000D02*
X408999D01*
X411664Y-187334D01*
Y-186668D01*
X410998Y-186001D01*
X409665D01*
X408999Y-186668D01*
X-31500Y-10000D02*
Y-6001D01*
X-29501D01*
X-28834Y-6668D01*
Y-8001D01*
X-29501Y-8667D01*
X-31500D01*
X-27501Y-10000D02*
X-26168D01*
X-26835D01*
Y-6001D01*
X-27501Y-6668D01*
X500166Y-186834D02*
Y-184168D01*
X499499Y-183501D01*
X498166D01*
X497500Y-184168D01*
Y-186834D01*
X498166Y-187500D01*
X499499D01*
X498833Y-186167D02*
X500166Y-187500D01*
X499499D02*
X500166Y-186834D01*
X504165Y-183501D02*
X501499D01*
Y-185501D01*
X502832Y-184834D01*
X503498D01*
X504165Y-185501D01*
Y-186834D01*
X503498Y-187500D01*
X502165D01*
X501499Y-186834D01*
X447666Y-141833D02*
Y-139168D01*
X446999Y-138501D01*
X445666D01*
X445000Y-139168D01*
Y-141833D01*
X445666Y-142500D01*
X446999D01*
X446333Y-141167D02*
X447666Y-142500D01*
X446999D02*
X447666Y-141833D01*
X450998Y-142500D02*
Y-138501D01*
X448999Y-140501D01*
X451664D01*
X575084Y98916D02*
X572418D01*
X571751Y98249D01*
Y96916D01*
X572418Y96250D01*
X575084D01*
X575750Y96916D01*
Y98249D01*
X574417Y97583D02*
X575750Y98916D01*
Y98249D02*
X575084Y98916D01*
X575750Y100249D02*
Y101582D01*
Y100915D01*
X571751D01*
X572418Y100249D01*
X786166Y-5334D02*
Y-2668D01*
X785499Y-2001D01*
X784166D01*
X783500Y-2668D01*
Y-5334D01*
X784166Y-6000D01*
X785499D01*
X784833Y-4667D02*
X786166Y-6000D01*
X785499D02*
X786166Y-5334D01*
X787499Y-2668D02*
X788165Y-2001D01*
X789498D01*
X790165Y-2668D01*
Y-3334D01*
X789498Y-4001D01*
X788832D01*
X789498D01*
X790165Y-4667D01*
Y-5334D01*
X789498Y-6000D01*
X788165D01*
X787499Y-5334D01*
X787666Y18167D02*
Y20832D01*
X786999Y21499D01*
X785666D01*
X785000Y20832D01*
Y18167D01*
X785666Y17500D01*
X786999D01*
X786333Y18833D02*
X787666Y17500D01*
X786999D02*
X787666Y18167D01*
X791665Y17500D02*
X788999D01*
X791665Y20166D01*
Y20832D01*
X790998Y21499D01*
X789665D01*
X788999Y20832D01*
X222000Y170000D02*
Y173999D01*
X223999D01*
X224666Y173332D01*
Y171999D01*
X223999Y171333D01*
X222000D01*
X223333D02*
X224666Y170000D01*
X225999D02*
X227332D01*
X226665D01*
Y173999D01*
X225999Y173332D01*
X229331D02*
X229997Y173999D01*
X231330D01*
X231997Y173332D01*
Y172666D01*
X231330Y171999D01*
X230664D01*
X231330D01*
X231997Y171333D01*
Y170667D01*
X231330Y170000D01*
X229997D01*
X229331Y170667D01*
X110500Y98500D02*
Y102499D01*
X112499D01*
X113166Y101832D01*
Y100499D01*
X112499Y99833D01*
X110500D01*
X111833D02*
X113166Y98500D01*
X114499D02*
X115832D01*
X115165D01*
Y102499D01*
X114499Y101832D01*
X117831Y99166D02*
X118497Y98500D01*
X119830D01*
X120497Y99166D01*
Y101832D01*
X119830Y102499D01*
X118497D01*
X117831Y101832D01*
Y101166D01*
X118497Y100499D01*
X120497D01*
X499000Y-139000D02*
Y-135001D01*
X500999D01*
X501666Y-135668D01*
Y-137001D01*
X500999Y-137667D01*
X499000D01*
X500333D02*
X501666Y-139000D01*
X504998D02*
Y-135001D01*
X502999Y-137001D01*
X505664D01*
X509663Y-139000D02*
X506997D01*
X509663Y-136334D01*
Y-135668D01*
X508997Y-135001D01*
X507664D01*
X506997Y-135668D01*
X447500Y-172500D02*
X443501D01*
Y-170501D01*
X444168Y-169834D01*
X445501D01*
X446167Y-170501D01*
Y-172500D01*
Y-171167D02*
X447500Y-169834D01*
Y-166502D02*
X443501D01*
X445501Y-168501D01*
Y-165835D01*
X444168Y-164503D02*
X443501Y-163836D01*
Y-162503D01*
X444168Y-161837D01*
X444834D01*
X445501Y-162503D01*
Y-163170D01*
Y-162503D01*
X446167Y-161837D01*
X446834D01*
X447500Y-162503D01*
Y-163836D01*
X446834Y-164503D01*
X455000Y-127500D02*
Y-123501D01*
X456999D01*
X457666Y-124168D01*
Y-125501D01*
X456999Y-126167D01*
X455000D01*
X456333D02*
X457666Y-127500D01*
X460998D02*
Y-123501D01*
X458999Y-125501D01*
X461664D01*
X462997Y-127500D02*
X464330D01*
X463664D01*
Y-123501D01*
X462997Y-124168D01*
X595000Y150000D02*
Y153999D01*
X596999D01*
X597666Y153332D01*
Y151999D01*
X596999Y151333D01*
X595000D01*
X596333D02*
X597666Y150000D01*
X598999Y150666D02*
X599665Y150000D01*
X600998D01*
X601664Y150666D01*
Y153332D01*
X600998Y153999D01*
X599665D01*
X598999Y153332D01*
Y152666D01*
X599665Y151999D01*
X601664D01*
X574500Y159500D02*
Y163499D01*
X576499D01*
X577166Y162832D01*
Y161499D01*
X576499Y160833D01*
X574500D01*
X575833D02*
X577166Y159500D01*
X578499Y162832D02*
X579165Y163499D01*
X580498D01*
X581165Y162832D01*
Y162166D01*
X580498Y161499D01*
X581165Y160833D01*
Y160167D01*
X580498Y159500D01*
X579165D01*
X578499Y160167D01*
Y160833D01*
X579165Y161499D01*
X578499Y162166D01*
Y162832D01*
X579165Y161499D02*
X580498D01*
X503250Y116250D02*
Y120249D01*
X505249D01*
X505916Y119582D01*
Y118249D01*
X505249Y117583D01*
X503250D01*
X504583D02*
X505916Y116250D01*
X507249D02*
X508582D01*
X507915D01*
Y120249D01*
X507249Y119582D01*
X513247Y120249D02*
X510581D01*
Y118249D01*
X511914Y118916D01*
X512580D01*
X513247Y118249D01*
Y116917D01*
X512580Y116250D01*
X511247D01*
X510581Y116917D01*
X578250Y42250D02*
X574251D01*
Y44249D01*
X574918Y44916D01*
X576251D01*
X576917Y44249D01*
Y42250D01*
Y43583D02*
X578250Y44916D01*
Y48915D02*
Y46249D01*
X575584Y48915D01*
X574918D01*
X574251Y48248D01*
Y46915D01*
X574918Y46249D01*
Y50247D02*
X574251Y50914D01*
Y52247D01*
X574918Y52913D01*
X575584D01*
X576251Y52247D01*
X576917Y52913D01*
X577584D01*
X578250Y52247D01*
Y50914D01*
X577584Y50247D01*
X576917D01*
X576251Y50914D01*
X575584Y50247D01*
X574918D01*
X576251Y50914D02*
Y52247D01*
X485000Y158500D02*
Y162499D01*
X486999D01*
X487666Y161832D01*
Y160499D01*
X486999Y159833D01*
X485000D01*
X486333D02*
X487666Y158500D01*
X491665Y162499D02*
X488999D01*
Y160499D01*
X490332Y161166D01*
X490998D01*
X491665Y160499D01*
Y159167D01*
X490998Y158500D01*
X489665D01*
X488999Y159167D01*
X570250Y42750D02*
X566251D01*
Y44749D01*
X566918Y45416D01*
X568251D01*
X568917Y44749D01*
Y42750D01*
Y44083D02*
X570250Y45416D01*
Y49415D02*
Y46749D01*
X567584Y49415D01*
X566918D01*
X566251Y48748D01*
Y47415D01*
X566918Y46749D01*
X566251Y50747D02*
Y53413D01*
X566918D01*
X569584Y50747D01*
X570250D01*
X561750Y43250D02*
X557751D01*
Y45249D01*
X558418Y45916D01*
X559751D01*
X560417Y45249D01*
Y43250D01*
Y44583D02*
X561750Y45916D01*
Y49915D02*
Y47249D01*
X559084Y49915D01*
X558418D01*
X557751Y49248D01*
Y47915D01*
X558418Y47249D01*
X557751Y53913D02*
X558418Y52580D01*
X559751Y51247D01*
X561084D01*
X561750Y51914D01*
Y53247D01*
X561084Y53913D01*
X560417D01*
X559751Y53247D01*
Y51247D01*
X515750Y123750D02*
Y127749D01*
X517749D01*
X518416Y127082D01*
Y125749D01*
X517749Y125083D01*
X515750D01*
X517083D02*
X518416Y123750D01*
X522414Y127749D02*
X521082Y127082D01*
X519749Y125749D01*
Y124416D01*
X520415Y123750D01*
X521748D01*
X522414Y124416D01*
Y125083D01*
X521748Y125749D01*
X519749D01*
X560147Y73900D02*
X556148D01*
Y75899D01*
X556814Y76566D01*
X558147D01*
X558814Y75899D01*
Y73900D01*
Y75233D02*
X560147Y76566D01*
Y80564D02*
Y77899D01*
X557481Y80564D01*
X556814D01*
X556148Y79898D01*
Y78565D01*
X556814Y77899D01*
Y81897D02*
X556148Y82564D01*
Y83897D01*
X556814Y84563D01*
X557481D01*
X558147Y83897D01*
Y83230D01*
Y83897D01*
X558814Y84563D01*
X559480D01*
X560147Y83897D01*
Y82564D01*
X559480Y81897D01*
X760153Y-9000D02*
Y-5001D01*
X762153D01*
X762819Y-5668D01*
Y-7001D01*
X762153Y-7667D01*
X760153D01*
X761486D02*
X762819Y-9000D01*
X766152D02*
Y-5001D01*
X764152Y-7001D01*
X766818D01*
X768151Y-5668D02*
X768817Y-5001D01*
X770150D01*
X770817Y-5668D01*
Y-8333D01*
X770150Y-9000D01*
X768817D01*
X768151Y-8333D01*
Y-5668D01*
X760000Y10000D02*
Y13999D01*
X761999D01*
X762666Y13332D01*
Y11999D01*
X761999Y11333D01*
X760000D01*
X761333D02*
X762666Y10000D01*
X763999Y13332D02*
X764665Y13999D01*
X765998D01*
X766665Y13332D01*
Y12666D01*
X765998Y11999D01*
X765332D01*
X765998D01*
X766665Y11333D01*
Y10667D01*
X765998Y10000D01*
X764665D01*
X763999Y10667D01*
X767997Y13332D02*
X768664Y13999D01*
X769997D01*
X770663Y13332D01*
Y12666D01*
X769997Y11999D01*
X769330D01*
X769997D01*
X770663Y11333D01*
Y10667D01*
X769997Y10000D01*
X768664D01*
X767997Y10667D01*
X625000Y225000D02*
Y228999D01*
X626999D01*
X627666Y228332D01*
Y226999D01*
X626999Y226333D01*
X625000D01*
X626333D02*
X627666Y225000D01*
X631665D02*
X628999D01*
X631665Y227666D01*
Y228332D01*
X630998Y228999D01*
X629665D01*
X628999Y228332D01*
X757500Y219153D02*
X753501D01*
Y221153D01*
X754168Y221819D01*
X755501D01*
X756167Y221153D01*
Y219153D01*
Y220486D02*
X757500Y221819D01*
Y225152D02*
X753501D01*
X755501Y223152D01*
Y225818D01*
X665000Y217500D02*
Y221499D01*
X666999D01*
X667666Y220832D01*
Y219499D01*
X666999Y218833D01*
X665000D01*
X666333D02*
X667666Y217500D01*
X668999Y220832D02*
X669665Y221499D01*
X670998D01*
X671664Y220832D01*
Y220166D01*
X670998Y219499D01*
X670332D01*
X670998D01*
X671664Y218833D01*
Y218166D01*
X670998Y217500D01*
X669665D01*
X668999Y218166D01*
X712500Y241693D02*
X708501D01*
Y243692D01*
X709168Y244359D01*
X710501D01*
X711167Y243692D01*
Y241693D01*
Y243026D02*
X712500Y244359D01*
Y245692D02*
Y247024D01*
Y246358D01*
X708501D01*
X709168Y245692D01*
X37000Y30500D02*
X33001D01*
Y32499D01*
X33668Y33166D01*
X35001D01*
X35667Y32499D01*
Y30500D01*
Y31833D02*
X37000Y33166D01*
X33668Y34499D02*
X33001Y35165D01*
Y36498D01*
X33668Y37165D01*
X34334D01*
X35001Y36498D01*
Y35832D01*
Y36498D01*
X35667Y37165D01*
X36334D01*
X37000Y36498D01*
Y35165D01*
X36334Y34499D01*
X33001Y38497D02*
Y41163D01*
X33668D01*
X36334Y38497D01*
X37000D01*
X15000Y31000D02*
Y34999D01*
X16999D01*
X17666Y34332D01*
Y32999D01*
X16999Y32333D01*
X15000D01*
X16333D02*
X17666Y31000D01*
X18999Y34332D02*
X19665Y34999D01*
X20998D01*
X21665Y34332D01*
Y33666D01*
X20998Y32999D01*
X20332D01*
X20998D01*
X21665Y32333D01*
Y31666D01*
X20998Y31000D01*
X19665D01*
X18999Y31666D01*
X25663Y34999D02*
X24330Y34332D01*
X22997Y32999D01*
Y31666D01*
X23664Y31000D01*
X24997D01*
X25663Y31666D01*
Y32333D01*
X24997Y32999D01*
X22997D01*
X-10000Y172500D02*
Y176499D01*
X-8001D01*
X-7334Y175832D01*
Y174499D01*
X-8001Y173833D01*
X-10000D01*
X-8667D02*
X-7334Y172500D01*
X-6001D02*
X-4668D01*
X-5335D01*
Y176499D01*
X-6001Y175832D01*
X-3Y172500D02*
X-2669D01*
X-3Y175166D01*
Y175832D01*
X-670Y176499D01*
X-2003D01*
X-2669Y175832D01*
X-35500Y42000D02*
X-39499D01*
Y43999D01*
X-38832Y44666D01*
X-37499D01*
X-36833Y43999D01*
Y42000D01*
Y43333D02*
X-35500Y44666D01*
X-38832Y45999D02*
X-39499Y46665D01*
Y47998D01*
X-38832Y48665D01*
X-38166D01*
X-37499Y47998D01*
Y47332D01*
Y47998D01*
X-36833Y48665D01*
X-36166D01*
X-35500Y47998D01*
Y46665D01*
X-36166Y45999D01*
X-35500Y49997D02*
Y51330D01*
Y50664D01*
X-39499D01*
X-38832Y49997D01*
X-27500Y172500D02*
Y176499D01*
X-25501D01*
X-24834Y175832D01*
Y174499D01*
X-25501Y173833D01*
X-27500D01*
X-26167D02*
X-24834Y172500D01*
X-23501D02*
X-22168D01*
X-22835D01*
Y176499D01*
X-23501Y175832D01*
X-20169Y172500D02*
X-18836D01*
X-19503D01*
Y176499D01*
X-20169Y175832D01*
X-45000Y172500D02*
Y176499D01*
X-43001D01*
X-42334Y175832D01*
Y174499D01*
X-43001Y173833D01*
X-45000D01*
X-43667D02*
X-42334Y172500D01*
X-41001D02*
X-39668D01*
X-40335D01*
Y176499D01*
X-41001Y175832D01*
X-37669D02*
X-37003Y176499D01*
X-35670D01*
X-35003Y175832D01*
Y173167D01*
X-35670Y172500D01*
X-37003D01*
X-37669Y173167D01*
Y175832D01*
X-6000Y23000D02*
Y26999D01*
X-4001D01*
X-3334Y26332D01*
Y24999D01*
X-4001Y24333D01*
X-6000D01*
X-4667D02*
X-3334Y23000D01*
X-2001Y26332D02*
X-1335Y26999D01*
X-2D01*
X665Y26332D01*
Y25666D01*
X-2Y24999D01*
X-668D01*
X-2D01*
X665Y24333D01*
Y23666D01*
X-2Y23000D01*
X-1335D01*
X-2001Y23666D01*
X1997Y26332D02*
X2664Y26999D01*
X3997D01*
X4663Y26332D01*
Y25666D01*
X3997Y24999D01*
X4663Y24333D01*
Y23666D01*
X3997Y23000D01*
X2664D01*
X1997Y23666D01*
Y24333D01*
X2664Y24999D01*
X1997Y25666D01*
Y26332D01*
X2664Y24999D02*
X3997D01*
X-6500Y15500D02*
Y19499D01*
X-4501D01*
X-3834Y18832D01*
Y17499D01*
X-4501Y16833D01*
X-6500D01*
X-5167D02*
X-3834Y15500D01*
X-2501Y18832D02*
X-1835Y19499D01*
X-502D01*
X164Y18832D01*
Y18166D01*
X-502Y17499D01*
X-1168D01*
X-502D01*
X164Y16833D01*
Y16166D01*
X-502Y15500D01*
X-1835D01*
X-2501Y16166D01*
X1497D02*
X2164Y15500D01*
X3497D01*
X4163Y16166D01*
Y18832D01*
X3497Y19499D01*
X2164D01*
X1497Y18832D01*
Y18166D01*
X2164Y17499D01*
X4163D01*
X532500Y68999D02*
X535166D01*
X533833D01*
Y65000D01*
X536499D02*
Y68999D01*
X538498D01*
X539164Y68332D01*
Y66999D01*
X538498Y66333D01*
X536499D01*
X540497Y65000D02*
X541830D01*
X541164D01*
Y68999D01*
X540497Y68332D01*
X543830Y68999D02*
X546495D01*
Y68332D01*
X543830Y65666D01*
Y65000D01*
X32332Y2665D02*
X31499Y3498D01*
X29833D01*
X29000Y2665D01*
Y1832D01*
X29833Y999D01*
X31499D01*
X32332Y166D01*
Y-667D01*
X31499Y-1500D01*
X29833D01*
X29000Y-667D01*
X37331Y2665D02*
X36498Y3498D01*
X34831D01*
X33998Y2665D01*
Y-667D01*
X34831Y-1500D01*
X36498D01*
X37331Y-667D01*
X38997Y3498D02*
Y-1500D01*
X42329D01*
X21335Y1332D02*
X20502Y499D01*
Y-1167D01*
X21335Y-2000D01*
X22168D01*
X23001Y-1167D01*
Y499D01*
X23834Y1332D01*
X24667D01*
X25500Y499D01*
Y-1167D01*
X24667Y-2000D01*
X20502Y2998D02*
X25500D01*
Y5498D01*
X24667Y6331D01*
X21335D01*
X20502Y5498D01*
Y2998D01*
X25500Y7997D02*
X22168D01*
X20502Y9663D01*
X22168Y11329D01*
X25500D01*
X23001D01*
Y7997D01*
X-7126Y123999D02*
X-4460D01*
X-5793D01*
Y120000D01*
X-3127D02*
Y123999D01*
X-1128D01*
X-461Y123332D01*
Y121999D01*
X-1128Y121333D01*
X-3127D01*
X871Y120000D02*
X2204D01*
X1538D01*
Y123999D01*
X871Y123332D01*
X4204D02*
X4870Y123999D01*
X6203D01*
X6870Y123332D01*
Y122666D01*
X6203Y121999D01*
X5537D01*
X6203D01*
X6870Y121333D01*
Y120667D01*
X6203Y120000D01*
X4870D01*
X4204Y120667D01*
X-39999Y88500D02*
Y91166D01*
Y89833D01*
X-36000D01*
Y92499D02*
X-39999D01*
Y94498D01*
X-39332Y95165D01*
X-37999D01*
X-37333Y94498D01*
Y92499D01*
X-36000Y96497D02*
Y97830D01*
Y97164D01*
X-39999D01*
X-39332Y96497D01*
X-39999Y102496D02*
Y99830D01*
X-37999D01*
X-38666Y101163D01*
Y101829D01*
X-37999Y102496D01*
X-36666D01*
X-36000Y101829D01*
Y100496D01*
X-36666Y99830D01*
X44002Y100000D02*
X47334D01*
X49000Y101666D01*
X47334Y103332D01*
X44002D01*
X45668Y104998D02*
X49000D01*
X47334D01*
X46501Y105831D01*
X45668Y106665D01*
Y107498D01*
X49000Y112496D02*
Y110830D01*
X48167Y109997D01*
X46501D01*
X45668Y110830D01*
Y112496D01*
X46501Y113329D01*
X47334D01*
Y109997D01*
X49000Y115828D02*
X44835D01*
X46501D01*
Y114995D01*
Y116661D01*
Y115828D01*
X44835D01*
X44002Y116661D01*
X217000Y130499D02*
Y127166D01*
X217666Y126500D01*
X218999D01*
X219666Y127166D01*
Y130499D01*
X220999Y129832D02*
X221665Y130499D01*
X222998D01*
X223664Y129832D01*
Y129166D01*
X222998Y128499D01*
X222332D01*
X222998D01*
X223664Y127833D01*
Y127166D01*
X222998Y126500D01*
X221665D01*
X220999Y127166D01*
X104000Y23499D02*
Y20166D01*
X104666Y19500D01*
X105999D01*
X106666Y20166D01*
Y23499D01*
X107999Y22832D02*
X108665Y23499D01*
X109998D01*
X110664Y22832D01*
Y22166D01*
X109998Y21499D01*
X110664Y20833D01*
Y20166D01*
X109998Y19500D01*
X108665D01*
X107999Y20166D01*
Y20833D01*
X108665Y21499D01*
X107999Y22166D01*
Y22832D01*
X108665Y21499D02*
X109998D01*
X517500Y111499D02*
Y108167D01*
X518166Y107500D01*
X519499D01*
X520166Y108167D01*
Y111499D01*
X523498Y107500D02*
Y111499D01*
X521499Y109499D01*
X524164D01*
X-44000Y146999D02*
Y143667D01*
X-43334Y143000D01*
X-42001D01*
X-41334Y143667D01*
Y146999D01*
X-37336Y143000D02*
X-40001D01*
X-37336Y145666D01*
Y146332D01*
X-38002Y146999D01*
X-39335D01*
X-40001Y146332D01*
X52909Y111499D02*
Y108167D01*
X53576Y107500D01*
X54909D01*
X55575Y108167D01*
Y111499D01*
X59574D02*
X56908D01*
Y109499D01*
X58241Y110166D01*
X58908D01*
X59574Y109499D01*
Y108167D01*
X58908Y107500D01*
X57575D01*
X56908Y108167D01*
X735666Y270332D02*
X734999Y270999D01*
X733666D01*
X733000Y270332D01*
Y267666D01*
X733666Y267000D01*
X734999D01*
X735666Y267666D01*
X736999Y267000D02*
X738332D01*
X737665D01*
Y270999D01*
X736999Y270332D01*
X767500Y261499D02*
Y258166D01*
X768166Y257500D01*
X769499D01*
X770166Y258166D01*
Y261499D01*
X771499Y257500D02*
X772832D01*
X772165D01*
Y261499D01*
X771499Y260832D01*
X455832Y-228335D02*
X454999Y-227502D01*
X453333D01*
X452500Y-228335D01*
Y-231667D01*
X453333Y-232500D01*
X454999D01*
X455832Y-231667D01*
Y-230001D01*
X454166D01*
X457498Y-232500D02*
Y-227502D01*
X460831Y-232500D01*
Y-227502D01*
X462497D02*
Y-232500D01*
X464996D01*
X465829Y-231667D01*
Y-228335D01*
X464996Y-227502D01*
X462497D01*
X528999Y-231502D02*
X525000D01*
Y-234501D01*
X526999Y-233501D01*
X527999D01*
X528999Y-234501D01*
Y-236500D01*
X527999Y-237500D01*
X526000D01*
X525000Y-236500D01*
X530998Y-231502D02*
Y-235501D01*
X532997Y-237500D01*
X534997Y-235501D01*
Y-231502D01*
X619998Y96248D02*
X618749Y97498D01*
X616250D01*
X615000Y96248D01*
Y91250D01*
X616250Y90000D01*
X618749D01*
X619998Y91250D01*
X627496Y96248D02*
X626246Y97498D01*
X623747D01*
X622498Y96248D01*
Y91250D01*
X623747Y90000D01*
X626246D01*
X627496Y91250D01*
X629995Y90000D02*
Y94998D01*
X632494Y97498D01*
X634994Y94998D01*
Y90000D01*
Y93749D01*
X629995D01*
X637493Y96248D02*
X638742Y97498D01*
X641242D01*
X642491Y96248D01*
Y91250D01*
X641242Y90000D01*
X638742D01*
X637493Y91250D01*
Y96248D01*
X644990D02*
X646240Y97498D01*
X648739D01*
X649989Y96248D01*
Y91250D01*
X648739Y90000D01*
X646240D01*
X644990Y91250D01*
Y96248D01*
X652488D02*
X653737Y97498D01*
X656237D01*
X657486Y96248D01*
Y91250D01*
X656237Y90000D01*
X653737D01*
X652488Y91250D01*
Y96248D01*
X664984Y97498D02*
X659985D01*
Y93749D01*
X662485Y94998D01*
X663734D01*
X664984Y93749D01*
Y91250D01*
X663734Y90000D01*
X661235D01*
X659985Y91250D01*
X667483Y96248D02*
X668733Y97498D01*
X671232D01*
X672481Y96248D01*
Y94998D01*
X671232Y93749D01*
X672481Y92499D01*
Y91250D01*
X671232Y90000D01*
X668733D01*
X667483Y91250D01*
Y92499D01*
X668733Y93749D01*
X667483Y94998D01*
Y96248D01*
X668733Y93749D02*
X671232D01*
X674981Y97498D02*
Y90000D01*
X678729D01*
X679979Y91250D01*
Y92499D01*
X678729Y93749D01*
X674981D01*
X678729D01*
X679979Y94998D01*
Y96248D01*
X678729Y97498D01*
X674981D01*
X92666Y-3501D02*
X91333D01*
X91999D01*
Y-6833D01*
X91333Y-7500D01*
X90666D01*
X90000Y-6833D01*
X93999Y-3501D02*
Y-7500D01*
X95332Y-6167D01*
X96665Y-7500D01*
Y-3501D01*
X97997D02*
Y-7500D01*
Y-5501D01*
X100663D01*
Y-3501D01*
Y-7500D01*
X105995D02*
Y-3501D01*
X107328Y-4834D01*
X108661Y-3501D01*
Y-7500D01*
X109994D02*
Y-4834D01*
X111326Y-3501D01*
X112659Y-4834D01*
Y-7500D01*
Y-5501D01*
X109994D01*
X113992Y-7500D02*
Y-3501D01*
X115992D01*
X116658Y-4168D01*
Y-5501D01*
X115992Y-6167D01*
X113992D01*
X115325D02*
X116658Y-7500D01*
X117991Y-5501D02*
X120657D01*
X121990Y-7500D02*
X123323D01*
X122656D01*
Y-3501D01*
X121990Y-4168D01*
X125322D02*
X125988Y-3501D01*
X127321D01*
X127988Y-4168D01*
Y-4834D01*
X127321Y-5501D01*
X127988Y-6167D01*
Y-6833D01*
X127321Y-7500D01*
X125988D01*
X125322Y-6833D01*
Y-6167D01*
X125988Y-5501D01*
X125322Y-4834D01*
Y-4168D01*
X125988Y-5501D02*
X127321D01*
X772500Y-15002D02*
X775832D01*
X774166D01*
Y-20000D01*
X777498Y-15002D02*
X780831Y-20000D01*
Y-15002D02*
X777498Y-20000D01*
X772500Y2500D02*
Y7498D01*
X774999D01*
X775832Y6665D01*
Y4999D01*
X774999Y4166D01*
X772500D01*
X774166D02*
X775832Y2500D01*
X777498Y7498D02*
X780831Y2500D01*
Y7498D02*
X777498Y2500D01*
X607500Y108498D02*
Y102500D01*
X610499D01*
X611499Y103500D01*
Y107498D01*
X610499Y108498D01*
X607500D01*
X617497Y107498D02*
X616497Y108498D01*
X614498D01*
X613498Y107498D01*
Y103500D01*
X614498Y102500D01*
X616497D01*
X617497Y103500D01*
X619496Y105499D02*
X623495D01*
X625494Y108498D02*
Y102500D01*
X628493D01*
X629493Y103500D01*
Y107498D01*
X628493Y108498D01*
X625494D01*
X635491Y107498D02*
X634491Y108498D01*
X632492D01*
X631492Y107498D01*
Y103500D01*
X632492Y102500D01*
X634491D01*
X635491Y103500D01*
X647487Y102500D02*
X646487Y103500D01*
X645488Y102500D01*
X644488D01*
X643488Y103500D01*
Y104499D01*
X644488Y105499D01*
X643488Y106499D01*
Y107498D01*
X644488Y108498D01*
X645488D01*
X646487Y107498D01*
Y106499D01*
X645488Y105499D01*
X646487Y104499D01*
Y103500D01*
X647487Y105499D02*
X646487Y104499D01*
X644488Y105499D02*
X645488D01*
X655484Y102500D02*
Y108498D01*
X658484D01*
X659483Y107498D01*
Y105499D01*
X658484Y104499D01*
X655484D01*
X657484D02*
X659483Y102500D01*
X665481Y107498D02*
X664482Y108498D01*
X662482D01*
X661482Y107498D01*
Y106499D01*
X662482Y105499D01*
X664482D01*
X665481Y104499D01*
Y103500D01*
X664482Y102500D01*
X662482D01*
X661482Y103500D01*
X667481Y105499D02*
X671479D01*
X676478Y102500D02*
Y108498D01*
X673479Y105499D01*
X677477D01*
X679477Y107498D02*
X680476Y108498D01*
X682476D01*
X683475Y107498D01*
Y106499D01*
X682476Y105499D01*
X683475Y104499D01*
Y103500D01*
X682476Y102500D01*
X680476D01*
X679477Y103500D01*
Y104499D01*
X680476Y105499D01*
X679477Y106499D01*
Y107498D01*
X680476Y105499D02*
X682476D01*
X689473Y108498D02*
X685475D01*
Y105499D01*
X687474Y106499D01*
X688474D01*
X689473Y105499D01*
Y103500D01*
X688474Y102500D01*
X686475D01*
X685475Y103500D01*
X560500Y171000D02*
Y175998D01*
X563832Y171000D01*
Y175998D01*
X567998D02*
X566331D01*
X565498Y175165D01*
Y171833D01*
X566331Y171000D01*
X567998D01*
X568831Y171833D01*
Y175165D01*
X567998Y175998D01*
X570497Y171000D02*
Y175998D01*
X572996D01*
X573829Y175165D01*
Y173499D01*
X572996Y172666D01*
X570497D01*
X572163D02*
X573829Y171000D01*
X575495D02*
Y175998D01*
X577161Y174332D01*
X578827Y175998D01*
Y171000D01*
X580493D02*
Y174332D01*
X582160Y175998D01*
X583826Y174332D01*
Y171000D01*
Y173499D01*
X580493D01*
X585492Y175998D02*
Y171000D01*
X588824D01*
X491500Y123000D02*
X486502D01*
Y125499D01*
X487335Y126332D01*
X489001D01*
X489834Y125499D01*
Y123000D01*
Y124666D02*
X491500Y126332D01*
X486502Y131331D02*
Y127998D01*
X491500D01*
Y131331D01*
X489001Y127998D02*
Y129665D01*
X486502Y132997D02*
X489834D01*
X491500Y134663D01*
X489834Y136329D01*
X486502D01*
Y141327D02*
Y137995D01*
X491500D01*
Y141327D01*
X489001Y137995D02*
Y139661D01*
X491500Y142993D02*
X486502D01*
Y145493D01*
X487335Y146326D01*
X489001D01*
X489834Y145493D01*
Y142993D01*
Y144660D02*
X491500Y146326D01*
X487335Y151324D02*
X486502Y150491D01*
Y148825D01*
X487335Y147992D01*
X488168D01*
X489001Y148825D01*
Y150491D01*
X489834Y151324D01*
X490667D01*
X491500Y150491D01*
Y148825D01*
X490667Y147992D01*
X486502Y156323D02*
Y152990D01*
X491500D01*
Y156323D01*
X489001Y152990D02*
Y154656D01*
X582000Y122000D02*
X577002D01*
Y124499D01*
X577835Y125332D01*
X579501D01*
X580334Y124499D01*
Y122000D01*
Y123666D02*
X582000Y125332D01*
X577002Y130331D02*
Y126998D01*
X582000D01*
Y130331D01*
X579501Y126998D02*
Y128665D01*
X577002Y131997D02*
X580334D01*
X582000Y133663D01*
X580334Y135329D01*
X577002D01*
Y140327D02*
Y136995D01*
X582000D01*
Y140327D01*
X579501Y136995D02*
Y138661D01*
X582000Y141993D02*
X577002D01*
Y144493D01*
X577835Y145326D01*
X579501D01*
X580334Y144493D01*
Y141993D01*
Y143660D02*
X582000Y145326D01*
X577835Y150324D02*
X577002Y149491D01*
Y147825D01*
X577835Y146992D01*
X578668D01*
X579501Y147825D01*
Y149491D01*
X580334Y150324D01*
X581167D01*
X582000Y149491D01*
Y147825D01*
X581167Y146992D01*
X577002Y155323D02*
Y151990D01*
X582000D01*
Y155323D01*
X579501Y151990D02*
Y153656D01*
D103*
X21976Y63705D02*
G03*
X21976Y63705I-1181J0D01*
G01*
D104*
X330001Y121499D02*
X329501Y121000D01*
Y120000D01*
X330001Y119500D01*
X332000D01*
X332500Y120000D01*
Y121000D01*
X332000Y121499D01*
X332500Y122499D02*
Y123499D01*
Y122999D01*
X329501D01*
X330001Y122499D01*
Y124998D02*
X329501Y125498D01*
Y126498D01*
X330001Y126998D01*
X330501D01*
X331000Y126498D01*
X331500Y126998D01*
X332000D01*
X332500Y126498D01*
Y125498D01*
X332000Y124998D01*
X331500D01*
X331000Y125498D01*
X330501Y124998D01*
X330001D01*
X331000Y125498D02*
Y126498D01*
X565750Y115250D02*
Y118249D01*
X567249D01*
X567749Y117749D01*
Y116750D01*
X567249Y116250D01*
X565750D01*
X566750D02*
X567749Y115250D01*
X568749D02*
X569749D01*
X569249D01*
Y118249D01*
X568749Y117749D01*
X571248Y118249D02*
X573248D01*
Y117749D01*
X571248Y115750D01*
Y115250D01*
X546750Y124750D02*
Y127749D01*
X548249D01*
X548749Y127249D01*
Y126250D01*
X548249Y125750D01*
X546750D01*
X547750D02*
X548749Y124750D01*
X549749Y127749D02*
X551748D01*
Y127249D01*
X549749Y125250D01*
Y124750D01*
X533750Y123250D02*
Y126249D01*
X535250D01*
X535749Y125749D01*
Y124750D01*
X535250Y124250D01*
X533750D01*
X534750D02*
X535749Y123250D01*
X536749D02*
X537749D01*
X537249D01*
Y126249D01*
X536749Y125749D01*
X541248Y126249D02*
X540248Y125749D01*
X539248Y124750D01*
Y123750D01*
X539748Y123250D01*
X540748D01*
X541248Y123750D01*
Y124250D01*
X540748Y124750D01*
X539248D01*
X18000Y124000D02*
Y126999D01*
X19500D01*
X19999Y126499D01*
Y125499D01*
X19500Y125000D01*
X18000D01*
X20999Y124000D02*
Y125999D01*
X21999Y126999D01*
X22998Y125999D01*
Y124000D01*
Y125499D01*
X20999D01*
X25498Y124000D02*
Y126999D01*
X23998Y125499D01*
X25997D01*
X6000Y115500D02*
Y118499D01*
X7500D01*
X7999Y117999D01*
Y116999D01*
X7500Y116500D01*
X6000D01*
X8999Y115500D02*
Y117499D01*
X9999Y118499D01*
X10998Y117499D01*
Y115500D01*
Y116999D01*
X8999D01*
X13997Y118499D02*
X11998D01*
Y116999D01*
X12998Y117499D01*
X13498D01*
X13997Y116999D01*
Y116000D01*
X13498Y115500D01*
X12498D01*
X11998Y116000D01*
D105*
X553419Y75718D02*
D03*
X-11831Y120468D02*
D03*
D106*
X504250Y-105250D02*
D03*
M02*
